<?xml version="1.0" encoding="utf-8"?>
<!-- Generator: Adobe Illustrator 18.1.0, SVG Export Plug-In . SVG Version: 6.00 Build 0)  -->
<!DOCTYPE svg PUBLIC "-//W3C//DTD SVG 1.1//EN" "http://www.w3.org/Graphics/SVG/1.1/DTD/svg11.dtd">
<svg version="1.1" id="Layer_1" xmlns="http://www.w3.org/2000/svg" xmlns:xlink="http://www.w3.org/1999/xlink" x="0px" y="0px"
	 viewBox="0 220 960 119" enable-background="new 0 220 960 119" xml:space="preserve">
<g opacity="0.3">
	<path fill="#40301E" d="M96.4,318.6c0.7,0,1.3-0.6,1.3-1.3V305c0-0.7-0.6-1.3-1.3-1.3H52.5v-18.3h38.3c0.7,0,1.3-0.6,1.3-1.3v-12.4
		c0-0.7-0.6-1.3-1.3-1.3H52.5v-18.2h43.9c0.7,0,1.3-0.6,1.3-1.3v-12.3c0-0.7-0.6-1.3-1.3-1.3H37.5c-0.7,0-1.3,0.6-1.3,1.3v78.7
		c0,0.7,0.6,1.3,1.3,1.3H96.4z M125.3,278c0-15.3,10.6-26.9,24.7-26.9c7.6,0,14.2,2.9,21.2,9.4c0.3,0.1,0.6,0.3,0.9,0.3h0.1
		c0.3,0,0.7-0.1,0.9-0.4l8.9-10.3c0.4-0.4,0.4-1.3-0.1-1.7c-6.6-6.3-15.4-12.6-31.7-12.6c-11.7,0-22.5,4.4-30.2,12.3
		c-7.6,7.9-11.7,18.3-11.7,29.7s4.1,21.9,11.7,29.7c7.7,8,18.4,12.3,30.2,12.3c16.3,0,25.2-6.4,31.7-12.6c0.4-0.4,0.6-1.1,0.1-1.7
		l-8.9-10.3c-0.1-0.3-0.6-0.4-0.9-0.4H172c-0.3,0-0.6,0.1-0.9,0.3c-7,6.6-13.6,9.4-21.2,9.4C136,304.9,125.3,293.3,125.3,278
		 M263.1,318.6c0.7,0,1.3-0.6,1.3-1.3v-78.7c0-0.7-0.6-1.3-1.3-1.3h-13.9c-0.7,0-1.3,0.6-1.3,1.3v31.9h-35v-31.9
		c0-0.7-0.6-1.3-1.3-1.3h-13.9c-0.7,0-1.3,0.6-1.3,1.3v78.7c0,0.7,0.6,1.3,1.3,1.3h13.9c0.7,0,1.3-0.6,1.3-1.3v-31.9h35v31.9
		c0,0.7,0.6,1.3,1.3,1.3H263.1z M346.5,278c0,15.3-11,26.9-25.5,26.9c-14.6,0-25.5-11.6-25.5-26.9s11-26.9,25.5-26.9
		C335.5,251.1,346.5,262.7,346.5,278 M363.8,278c0-11.3-4.3-21.9-11.9-29.6c-7.9-8-18.7-12.4-30.6-12.4s-22.7,4.4-30.6,12.4
		c-7.7,7.9-11.9,18.4-11.9,29.6c0,11.3,4.3,21.9,11.9,29.6c7.9,8,18.7,12.4,30.6,12.4c11.9,0,22.7-4.4,30.6-12.4
		C359.5,299.9,363.8,289.3,363.8,278"/>
	<g>
		<path fill="#40301E" d="M422.7,294.3l-8.4,17h-4.1l-8.3-17v19.6h-7v-31.2h9.4l8,17.2l8.1-17.2h9.4v31.2h-7V294.3z"/>
		<path fill="#40301E" d="M459.5,313.9l-2.9-6.7h-13.1l-2.9,6.7h-7.3l13.5-31.2h6.7l13.5,31.2C467.1,313.9,459.5,313.9,459.5,313.9z
			 M450.1,292l-4,9.1h7.8L450.1,292z"/>
		<path fill="#40301E" d="M495.8,293.1c0,4.9-1.9,8.3-5.9,9.7l8,11.1h-8.6l-6.8-9.9h-4.8v9.9h-7v-31.2h11.8c4.8,0,8.3,0.8,10.3,2.4
			C494.8,286.9,495.8,289.4,495.8,293.1z M487.5,296.7c0.8-0.8,1.3-2.1,1.3-3.7c0-1.8-0.5-2.9-1.3-3.5c-1-0.6-2.4-1-4.6-1h-5.3v9.2
			h5.1C484.9,298,486.5,297.5,487.5,296.7z"/>
		<path fill="#40301E" d="M502.9,282.7h7v12.7l11.8-12.7h8.6l-12.4,13.9c1.1,1.4,3,4.3,5.9,8.3c2.9,4,5.1,7,6.5,9.1h-8.1l-9.1-12.3
			l-3.2,3.5v8.8h-7V282.7z"/>
		<path fill="#40301E" d="M557.1,282.7v6.2h-15.4v6.4h14v5.9h-14v6.5h16.1v6.2h-22.9v-31.2H557.1z"/>
		<path fill="#40301E" d="M577,288.8v25.2h-7v-25.2h-8.8v-6.1h24.7v6.1H577z"/>
		<path fill="#40301E" d="M590.8,282.7h7v31.2h-7V282.7z"/>
		<path fill="#40301E" d="M627.3,282.7h7v31.2h-7l-14.8-19.6v19.6h-7v-31.2h6.5l15.3,20.1V282.7z"/>
		<path fill="#40301E" d="M662.2,298h7v11c-3,3.5-7.3,5.1-12.9,5.1c-4.6,0-8.4-1.6-11.5-4.6c-3.2-3-4.6-6.8-4.6-11.5
			s1.6-8.4,4.8-11.6c3.2-3,7-4.6,11.5-4.6c4.5,0,8.3,1.4,11.6,4.5l-3.7,5.3c-1.4-1.3-2.7-2.1-3.8-2.5c-1.1-0.5-2.4-0.6-3.8-0.6
			c-2.7,0-4.9,1-6.7,2.7c-1.8,1.8-2.7,4.1-2.7,7.2c0,2.9,0.8,5.3,2.5,7c1.8,1.8,3.8,2.7,6.2,2.7c2.4,0,4.5-0.5,6.1-1.4V298
			L662.2,298z"/>
		<path fill="#40301E" d="M701.5,307.7c3.3,0,6.2-1.3,8.4-4l4.5,4.6c-3.5,4-7.6,6.1-12.6,6.1c-4.8,0-8.8-1.6-11.8-4.6
			c-3.2-3-4.6-6.8-4.6-11.5c0-4.6,1.6-8.4,4.8-11.6c3.2-3.2,7-4.6,11.6-4.6c5.1,0,9.4,1.9,12.9,5.9l-4.3,4.9
			c-2.2-2.7-4.9-4.1-8.3-4.1c-2.5,0-4.8,0.8-6.7,2.5s-2.9,4-2.9,6.8c0,2.9,0.8,5.3,2.7,7C696.9,306.9,698.9,307.7,701.5,307.7z"/>
		<path fill="#40301E" d="M741.8,313.9l-2.9-6.7h-13.1l-2.9,6.7h-7.5l13.5-31.2h6.7l13.5,31.2C749.3,313.9,741.8,313.9,741.8,313.9z
			 M732.4,292l-4,9.1h7.8L732.4,292z"/>
		<path fill="#40301E" d="M752.8,313.9v-31.2h7v25H773v6.2C773,313.9,752.8,313.9,752.8,313.9z"/>
		<path fill="#40301E" d="M800.5,282.7v6.2h-15.4v6.4h14v5.9h-14v6.5h16.1v6.2h-22.9v-31.2H800.5z"/>
		<path fill="#40301E" d="M829,282.7h7v31.2h-7l-14.8-19.6v19.6h-7v-31.2h6.5l15.3,20.1L829,282.7L829,282.7z"/>
		<path fill="#40301E" d="M867.4,286.9c3,2.7,4.5,6.5,4.5,11.3c0,4.8-1.4,8.8-4.3,11.5c-2.9,2.9-7.3,4.3-13.2,4.3h-10.7v-31.2h11
			C860.2,282.7,864.5,284.2,867.4,286.9z M862.3,305.3c1.8-1.6,2.5-4,2.5-7c0-3-0.8-5.4-2.5-7c-1.8-1.6-4.3-2.5-7.8-2.5h-3.8v18.9
			h4.5C858.2,307.7,860.7,306.9,862.3,305.3z"/>
		<path fill="#40301E" d="M899.3,313.9l-2.9-6.7h-13.1l-2.9,6.7h-7.3l13.5-31.2h6.7l13.5,31.2C906.9,313.9,899.3,313.9,899.3,313.9z
			 M889.9,292l-4,9.1h7.8L889.9,292z"/>
		<path fill="#40301E" d="M935.6,293.1c0,4.9-1.9,8.3-5.9,9.7l8,11.1H929l-6.8-9.9h-4.8v9.9h-7v-31.2h11.8c4.8,0,8.3,0.8,10.3,2.4
			C934.6,286.9,935.6,289.4,935.6,293.1z M927.1,296.7c0.8-0.8,1.3-2.1,1.3-3.7c0-1.8-0.5-2.9-1.3-3.5c-1-0.6-2.4-1-4.6-1h-5.3v9.2
			h5.1C924.7,298,926.3,297.5,927.1,296.7z"/>
	</g>
</g>
<path fill="#BCAA96" d="M96.4,320.6c0.7,0,1.3-0.6,1.3-1.3V307c0-0.7-0.6-1.3-1.3-1.3H52.5v-18.3h38.3c0.7,0,1.3-0.6,1.3-1.3v-12.4
	c0-0.7-0.6-1.3-1.3-1.3H52.5v-18.2h43.9c0.7,0,1.3-0.6,1.3-1.3v-12.3c0-0.7-0.6-1.3-1.3-1.3H37.5c-0.7,0-1.3,0.6-1.3,1.3v78.7
	c0,0.7,0.6,1.3,1.3,1.3H96.4z M125.3,280c0-15.3,10.6-26.9,24.7-26.9c7.6,0,14.2,2.9,21.2,9.4c0.3,0.1,0.6,0.3,0.9,0.3h0.1
	c0.3,0,0.7-0.1,0.9-0.4l8.9-10.3c0.4-0.4,0.4-1.3-0.1-1.7c-6.6-6.3-15.4-12.6-31.7-12.6c-11.7,0-22.5,4.4-30.2,12.3
	c-7.6,7.9-11.7,18.3-11.7,29.7s4.1,21.9,11.7,29.7c7.7,8,18.4,12.3,30.2,12.3c16.3,0,25.2-6.4,31.7-12.6c0.4-0.4,0.6-1.1,0.1-1.7
	l-8.9-10.3c-0.1-0.3-0.6-0.4-0.9-0.4H172c-0.3,0-0.6,0.1-0.9,0.3c-7,6.6-13.6,9.4-21.2,9.4C136,306.9,125.3,295.3,125.3,280
	 M263.1,320.6c0.7,0,1.3-0.6,1.3-1.3v-78.7c0-0.7-0.6-1.3-1.3-1.3h-13.9c-0.7,0-1.3,0.6-1.3,1.3v31.9h-35v-31.9
	c0-0.7-0.6-1.3-1.3-1.3h-13.9c-0.7,0-1.3,0.6-1.3,1.3v78.7c0,0.7,0.6,1.3,1.3,1.3h13.9c0.7,0,1.3-0.6,1.3-1.3v-31.9h35v31.9
	c0,0.7,0.6,1.3,1.3,1.3H263.1z M346.5,280c0,15.3-11,26.9-25.5,26.9c-14.6,0-25.5-11.6-25.5-26.9s11-26.9,25.5-26.9
	C335.5,253.1,346.5,264.7,346.5,280 M363.8,280c0-11.3-4.3-21.9-11.9-29.6c-7.9-8-18.7-12.4-30.6-12.4s-22.7,4.4-30.6,12.4
	c-7.7,7.9-11.9,18.4-11.9,29.6c0,11.3,4.3,21.9,11.9,29.6c7.9,8,18.7,12.4,30.6,12.4c11.9,0,22.7-4.4,30.6-12.4
	C359.5,301.9,363.8,291.3,363.8,280"/>
<g>
	<path fill="#BCAA96" d="M518.8,269.3v-1.9c0-0.2-0.2-0.5-0.5-0.5h-14.6v-8.6h13c0.2,0,0.5-0.2,0.5-0.5v-1.9c0-0.2-0.2-0.5-0.5-0.5
		h-13v-8.4h14.4c0.2,0,0.5-0.2,0.5-0.5v-1.9c0-0.2-0.2-0.5-0.5-0.5h-16.7c-0.2,0-0.5,0.2-0.5,0.5v23v1.4c0,0.2,0.2,0.5,0.5,0.5h0.5
		h16.5C518.6,269.8,518.8,269.5,518.8,269.3 M545.1,269.3v-23.5c0-0.2-0.2-0.5-0.5-0.5h-1.9c-0.2,0-0.5,0.2-0.5,0.5v19l-15.1-19.3
		c-0.2-0.2-0.7-0.2-0.7-0.2h-1.9c-0.2,0-0.5,0.2-0.5,0.5v23.5c0,0.2,0.2,0.5,0.5,0.5h1.9c0.2,0,0.5-0.2,0.5-0.5v-19.5l15.6,19.7
		c0.2,0.2,0.7,0.2,0.7,0.2h1.4C544.9,269.8,545.1,269.5,545.1,269.3 M569,247.9c0.2,0,0.5-0.2,0.5-0.5v-1.9c0-0.2-0.2-0.5-0.5-0.5
		h-18.4c-0.2,0-0.5,0.2-0.5,0.5v1.9c0,0.2,0.2,0.5,0.5,0.5h7.9v20.9v0.5c0,0.2,0.2,0.5,0.5,0.5h2.1c0.2,0,0.5-0.2,0.5-0.5v-0.5
		v-20.9H569z M592.5,269.3v-1.9c0-0.2-0.2-0.5-0.5-0.5h-14.6v-8.6h13c0.2,0,0.5-0.2,0.5-0.5v-1.9c0-0.2-0.2-0.5-0.5-0.5h-13v-8.4
		h14.4c0.2,0,0.5-0.2,0.5-0.5v-1.9c0-0.2-0.2-0.5-0.5-0.5h-16.7c-0.2,0-0.5,0.2-0.5,0.5v23v1.4c0,0.2,0.2,0.5,0.5,0.5h0.5H592
		C592.2,269.8,592.5,269.5,592.5,269.3 M608.3,257.7h-7.4v-10h7.4c3.9,0,6.3,1.9,6.3,4.9C614.5,255.8,612,257.7,608.3,257.7
		 M618,269.3l-7.2-9.5c3.7-0.7,6.5-3,6.5-7.2c0-4.4-3.5-7.2-8.8-7.2h-10c-0.2,0-0.5,0.2-0.5,0.5v23.5c0,0.2,0.2,0.5,0.5,0.5h2.1
		c0.2,0,0.5-0.2,0.5-0.5v-9.1h7l7,9.3c0.2,0.2,0.7,0.2,0.7,0.2h2.3C617.8,269.8,618,269.5,618,269.3 M640.1,247.9
		c0.2,0,0.5-0.2,0.5-0.5v-1.9c0-0.2-0.2-0.5-0.5-0.5h-18.4c-0.2,0-0.5,0.2-0.5,0.5v1.9c0,0.2,0.2,0.5,0.5,0.5h7.9v20.9v0.5
		c0,0.2,0.2,0.5,0.5,0.5h2.1c0.2,0,0.5-0.2,0.5-0.5v-0.5v-20.9H640.1z M658.4,260.9h-11.1l5.6-12.3L658.4,260.9z M665.2,269.3
		l-10.7-23.7c0,0-0.2-0.5-0.5-0.5h-1.9c-0.5,0-0.7,0.5-0.7,0.5l-10.7,23.7c0,0.2,0.2,0.5,0.5,0.5h1.9c0,0,0.5,0,0.7-0.2l2.8-6h13.2
		l2.8,6c0.2,0.2,0.7,0.2,0.7,0.2h1.9C664.9,269.8,665.2,269.5,665.2,269.3 M673.3,269.3v-23.5c0-0.2-0.2-0.5-0.5-0.5h-2.1
		c-0.2,0-0.5,0.2-0.5,0.5v23.5c0,0.2,0.2,0.5,0.5,0.5h2.1C673.1,269.8,673.3,269.5,673.3,269.3 M701.4,269.3v-23.5
		c0-0.2-0.2-0.5-0.5-0.5h-1.9c-0.2,0-0.5,0.2-0.5,0.5v19l-15.1-19.3c-0.2-0.2-0.7-0.2-0.7-0.2H681c-0.2,0-0.5,0.2-0.5,0.5v23.5
		c0,0.2,0.2,0.5,0.5,0.5h1.9c0.2,0,0.5-0.2,0.5-0.5v-19.5l15.6,19.7c0.2,0.2,0.7,0.2,0.7,0.2h1.4
		C701.2,269.8,701.4,269.5,701.4,269.3 M731.8,269.3v-23.5c0-0.2-0.2-0.5-0.5-0.5h-2.1c0,0-0.5,0-0.7,0.2l-8.6,13l-8.6-13
		c-0.2-0.2-0.7-0.2-0.7-0.2h-1.9c-0.2,0-0.5,0.2-0.5,0.5v23.5c0,0.2,0.2,0.5,0.5,0.5h1.9c0.2,0,0.5-0.2,0.5-0.5V250l8.6,12.5
		c0,0,0.2,0.2,0.5,0.2s0.5-0.2,0.5-0.2l8.6-12.5v19.3c0,0.2,0.2,0.5,0.5,0.5h2.1C731.6,269.8,731.8,269.5,731.8,269.3 M756.2,269.3
		v-1.9c0-0.2-0.2-0.5-0.5-0.5h-14.4v-8.6h13c0.2,0,0.5-0.2,0.5-0.5v-1.9c0-0.2-0.2-0.5-0.5-0.5h-13v-8.4h14.4c0.2,0,0.5-0.2,0.5-0.5
		v-1.9c0-0.2-0.2-0.5-0.5-0.5H739c-0.2,0-0.5,0.2-0.5,0.5v24.4c0,0.2,0.2,0.5,0.5,0.5h17C756.2,269.8,756.2,269.5,756.2,269.3
		 M782.5,269.3v-23.5c0-0.2-0.2-0.5-0.5-0.5h-1.9c-0.2,0-0.5,0.2-0.5,0.5v19l-15.1-19.3c-0.2-0.2-0.7-0.2-0.7-0.2h-1.6
		c-0.2,0-0.5,0.2-0.5,0.5v23.5c0,0.2,0.2,0.5,0.5,0.5h1.9c0.2,0,0.5-0.2,0.5-0.5v-19.5l15.6,19.7c0.2,0.2,0.7,0.2,0.7,0.2h1.4
		C782.3,269.8,782.5,269.5,782.5,269.3 M806.6,247.9c0.2,0,0.5-0.2,0.5-0.5v-1.9c0-0.2-0.2-0.5-0.5-0.5h-18.4
		c-0.2,0-0.5,0.2-0.5,0.5v1.9c0,0.2,0.2,0.5,0.5,0.5h7.9v21.4c0,0.2,0.2,0.5,0.5,0.5h2.1c0.2,0,0.5-0.2,0.5-0.5v-21.4H806.6z
		 M835.9,266.7c0.5-0.5,0.5-0.7,0.5-0.7v-0.7v-7.9c0-0.2-0.2-0.5-0.5-0.5h-9.1c-0.2,0-0.5,0.2-0.5,0.5v0.9c0,0.2,0.2,0.5,0.5,0.5
		h7.7v7c-1.9,1.4-4.6,2.8-7.7,2.8c-6.5,0-10.5-4.6-10.5-10.9l0,0c0-5.8,4.2-10.9,10-10.9c2.6,0,4.4,0.7,5.8,1.4l0.2,0.2
		c0.5,0.2,0.9,0.7,1.4,0.9h0.2l0,0c0,0,0.2,0,0.2-0.2l0.2-0.5l0.2-0.2l0,0c0.2-0.2,0.2-0.5,0-0.5c-0.2-0.2-0.7-0.5-0.9-0.7l-0.5-0.2
		c-2.1-1.4-4.2-2.1-7.4-2.1c-7.2,0-12.1,6-12.1,12.5l0,0c0,6.7,4.6,12.5,12.3,12.5c3.5,0,6.3-1.2,8.6-2.8L835.9,266.7z M853.1,257.9
		H845V247h8.4c4.4,0,7,2.1,7,5.3l0,0C860.1,256.1,857,257.9,853.1,257.9 M862.6,269.3l-7.7-10c4.2-0.5,7.2-2.8,7.2-7l0,0
		c0-4.2-3.5-7-8.6-7h-9.8c-0.2,0-0.5,0.2-0.5,0.5v23.5c0,0.2,0.2,0.5,0.5,0.5h1.2c0.2,0,0.5-0.2,0.5-0.5v-9.8h7.9l7.4,9.8
		c0.2,0.2,0.7,0.2,0.7,0.2h1.2C862.4,269.8,862.6,269.5,862.6,269.3 M889.1,257.7c0,6-4.4,10.9-10.2,10.9c-6,0-10.5-4.9-10.5-10.9
		l0,0c0-6,4.4-10.9,10.2-10.9C884.7,246.5,889.1,251.6,889.1,257.7L889.1,257.7z M891,257.4L891,257.4c0-6.7-4.9-12.5-12.3-12.5
		s-12.3,6-12.3,12.5l0,0c0,6.7,4.9,12.5,12.3,12.5C886.1,270,891,264.2,891,257.4 M916.7,259.3v-13.7c0-0.2-0.2-0.5-0.5-0.5h-1.2
		c-0.2,0-0.5,0.2-0.5,0.5v13.9c0,5.8-3.3,8.8-8.1,8.8c-5.1,0-8.1-3.3-8.1-9.1v-13.7c0-0.2-0.2-0.5-0.5-0.5h-1.2
		c-0.2,0-0.5,0.2-0.5,0.5v13.9c0,6.7,4.2,10.5,10,10.5C912.8,270.2,916.7,266.3,916.7,259.3 M940,253c0,3.7-3,6-7.7,6h-6.7v-11.8h7
		C936.9,247,940,249.1,940,253L940,253z M941.8,252.8L941.8,252.8c0-4.9-3.7-7.4-9.1-7.4h-8.4c-0.2,0-0.5,0.2-0.5,0.5v23.5
		c0,0.2,0.2,0.5,0.5,0.5h1.2c0.2,0,0.5-0.2,0.5-0.5v-8.6h6.5C937.4,260.7,941.8,257.9,941.8,252.8"/>
	<path fill="#BCAA96" d="M412.9,269.8c0.2,0,0.5-0.2,0.5-0.5v-3.7c0-0.2-0.2-0.5-0.5-0.5h-13.2v-5.6h11.4c0.2,0,0.5-0.2,0.5-0.5
		v-3.7c0-0.2-0.2-0.5-0.5-0.5h-11.4v-5.6h13.2c0.2,0,0.5-0.2,0.5-0.5v-3.7c0-0.2-0.2-0.5-0.5-0.5h-17.7c-0.2,0-0.5,0.2-0.5,0.5v24.2
		c0,0.2,0.2,0.5,0.5,0.5H412.9z M421.8,257.4c0-4.6,3.3-8.1,7.4-8.1c2.3,0,4.2,0.9,6.3,2.8h0.2l0,0c0,0,0.2,0,0.2-0.2l2.6-3
		c0.2-0.2,0.2-0.5,0-0.5c-1.9-1.9-4.6-3.7-9.5-3.7c-3.5,0-6.7,1.4-9.1,3.7c-2.3,2.3-3.5,5.6-3.5,8.8c0,3.5,1.2,6.5,3.5,8.8
		c2.3,2.3,5.6,3.7,9.1,3.7c4.9,0,7.4-1.9,9.5-3.7c0.2-0.2,0.2-0.5,0-0.5l-2.6-3l-0.2-0.2l0,0h-0.2c-2.1,1.9-4.2,2.8-6.3,2.8
		C424.8,265.6,421.8,262.1,421.8,257.4 M463.1,269.8c0.2,0,0.5-0.2,0.5-0.5v-23.5c0-0.2-0.2-0.5-0.5-0.5h-4.2
		c-0.2,0-0.5,0.2-0.5,0.5v9.5H448v-9.5c0-0.2-0.2-0.5-0.5-0.5h-4.2c-0.2,0-0.5,0.2-0.5,0.5v23.5c0,0.2,0.2,0.5,0.5,0.5h4.2
		c0.2,0,0.5-0.2,0.5-0.5v-9.5h10.5v9.5c0,0.2,0.2,0.5,0.5,0.5H463.1z M488,257.4c0,4.6-3.3,8.1-7.7,8.1s-7.7-3.5-7.7-8.1
		c0-4.6,3.3-8.1,7.7-8.1C484.7,249.5,488,253,488,257.4 M493.3,257.4c0-3.5-1.2-6.5-3.5-8.8s-5.6-3.7-9.3-3.7
		c-3.5,0-6.7,1.4-9.3,3.7c-2.3,2.3-3.5,5.6-3.5,8.8c0,3.5,1.2,6.5,3.5,8.8c2.3,2.3,5.6,3.7,9.3,3.7c3.5,0,6.7-1.4,9.3-3.7
		C491.9,264.2,493.3,260.9,493.3,257.4"/>
</g>
<g>
	<path fill="#BCAA96" d="M422.7,296.3l-8.4,17h-4.1l-8.3-17v19.6h-7v-31.2h9.4l8,17.2l8.1-17.2h9.4v31.2h-7V296.3z"/>
	<path fill="#BCAA96" d="M459.5,315.9l-2.9-6.7h-13.1l-2.9,6.7h-7.3l13.5-31.2h6.7l13.5,31.2C467.1,315.9,459.5,315.9,459.5,315.9z
		 M450.1,294l-4,9.1h7.8L450.1,294z"/>
	<path fill="#BCAA96" d="M495.8,295.1c0,4.9-1.9,8.3-5.9,9.7l8,11.1h-8.6l-6.8-9.9h-4.8v9.9h-7v-31.2h11.8c4.8,0,8.3,0.8,10.3,2.4
		C494.8,288.9,495.8,291.4,495.8,295.1z M487.5,298.7c0.8-0.8,1.3-2.1,1.3-3.7c0-1.8-0.5-2.9-1.3-3.5c-1-0.6-2.4-1-4.6-1h-5.3v9.2
		h5.1C484.9,300,486.5,299.5,487.5,298.7z"/>
	<path fill="#BCAA96" d="M502.9,284.7h7v12.7l11.8-12.7h8.6l-12.4,13.9c1.1,1.4,3,4.3,5.9,8.3c2.9,4,5.1,7,6.5,9.1h-8.1l-9.1-12.3
		l-3.2,3.5v8.8h-7V284.7z"/>
	<path fill="#BCAA96" d="M557.1,284.7v6.2h-15.4v6.4h14v5.9h-14v6.5h16.1v6.2h-22.9v-31.2H557.1z"/>
	<path fill="#BCAA96" d="M577,290.8v25.2h-7v-25.2h-8.8v-6.1h24.7v6.1H577z"/>
	<path fill="#BCAA96" d="M590.8,284.7h7v31.2h-7V284.7z"/>
	<path fill="#BCAA96" d="M627.3,284.7h7v31.2h-7l-14.8-19.6v19.6h-7v-31.2h6.5l15.3,20.1V284.7z"/>
	<path fill="#BCAA96" d="M662.2,300h7v11c-3,3.5-7.3,5.1-12.9,5.1c-4.6,0-8.4-1.6-11.5-4.6c-3.2-3-4.6-6.8-4.6-11.5
		s1.6-8.4,4.8-11.6c3.2-3,7-4.6,11.5-4.6c4.5,0,8.3,1.4,11.6,4.5l-3.7,5.3c-1.4-1.3-2.7-2.1-3.8-2.5c-1.1-0.5-2.4-0.6-3.8-0.6
		c-2.7,0-4.9,1-6.7,2.7c-1.8,1.8-2.7,4.1-2.7,7.2c0,2.9,0.8,5.3,2.5,7c1.8,1.8,3.8,2.7,6.2,2.7c2.4,0,4.5-0.5,6.1-1.4V300L662.2,300
		z"/>
	<path fill="#BCAA96" d="M701.5,309.7c3.3,0,6.2-1.3,8.4-4l4.5,4.6c-3.5,4-7.6,6.1-12.6,6.1c-4.8,0-8.8-1.6-11.8-4.6
		c-3.2-3-4.6-6.8-4.6-11.5c0-4.6,1.6-8.4,4.8-11.6c3.2-3.2,7-4.6,11.6-4.6c5.1,0,9.4,1.9,12.9,5.9l-4.3,4.9
		c-2.2-2.7-4.9-4.1-8.3-4.1c-2.5,0-4.8,0.8-6.7,2.5s-2.9,4-2.9,6.8c0,2.9,0.8,5.3,2.7,7C696.9,308.9,698.9,309.7,701.5,309.7z"/>
	<path fill="#BCAA96" d="M741.8,315.9l-2.9-6.7h-13.1l-2.9,6.7h-7.5l13.5-31.2h6.7l13.5,31.2C749.3,315.9,741.8,315.9,741.8,315.9z
		 M732.4,294l-4,9.1h7.8L732.4,294z"/>
	<path fill="#BCAA96" d="M752.8,315.9v-31.2h7v25H773v6.2C773,315.9,752.8,315.9,752.8,315.9z"/>
	<path fill="#BCAA96" d="M800.5,284.7v6.2h-15.4v6.4h14v5.9h-14v6.5h16.1v6.2h-22.9v-31.2H800.5z"/>
	<path fill="#BCAA96" d="M829,284.7h7v31.2h-7l-14.8-19.6v19.6h-7v-31.2h6.5l15.3,20.1L829,284.7L829,284.7z"/>
	<path fill="#BCAA96" d="M867.4,288.9c3,2.7,4.5,6.5,4.5,11.3c0,4.8-1.4,8.8-4.3,11.5c-2.9,2.9-7.3,4.3-13.2,4.3h-10.7v-31.2h11
		C860.2,284.7,864.5,286.2,867.4,288.9z M862.3,307.3c1.8-1.6,2.5-4,2.5-7c0-3-0.8-5.4-2.5-7c-1.8-1.6-4.3-2.5-7.8-2.5h-3.8v18.9
		h4.5C858.2,309.7,860.7,308.9,862.3,307.3z"/>
	<path fill="#BCAA96" d="M899.3,315.9l-2.9-6.7h-13.1l-2.9,6.7h-7.3l13.5-31.2h6.7l13.5,31.2C906.9,315.9,899.3,315.9,899.3,315.9z
		 M889.9,294l-4,9.1h7.8L889.9,294z"/>
	<path fill="#BCAA96" d="M935.6,295.1c0,4.9-1.9,8.3-5.9,9.7l8,11.1H929l-6.8-9.9h-4.8v9.9h-7v-31.2h11.8c4.8,0,8.3,0.8,10.3,2.4
		C934.6,288.9,935.6,291.4,935.6,295.1z M927.1,298.7c0.8-0.8,1.3-2.1,1.3-3.7c0-1.8-0.5-2.9-1.3-3.5c-1-0.6-2.4-1-4.6-1h-5.3v9.2
		h5.1C924.7,300,926.3,299.5,927.1,298.7z"/>
</g>
</svg>
