<?xml version="1.0" encoding="utf-8"?>
<!-- Generator: Adobe Illustrator 18.1.0, SVG Export Plug-In . SVG Version: 6.00 Build 0)  -->
<!DOCTYPE svg PUBLIC "-//W3C//DTD SVG 1.1//EN" "http://www.w3.org/Graphics/SVG/1.1/DTD/svg11.dtd">
<svg version="1.1" id="Layer_1" xmlns="http://www.w3.org/2000/svg" xmlns:xlink="http://www.w3.org/1999/xlink" x="0px" y="0px"
	 viewBox="0 0 17 25" enable-background="new 0 0 17 25" xml:space="preserve">
<g id="user_-_single">
	<g>
		<path fill-rule="evenodd" clip-rule="evenodd" fill="#999999" d="M12.9,13c1.3-1.4,2.1-3.3,2.1-5.5C15,3.4,12.1,0,8.5,0
			C4.9,0,2,3.4,2,7.5c0,2.2,0.8,4.2,2.1,5.5C1.8,13.3,0,15.2,0,17.5v3C0,23,2.1,25,4.6,25h7.7c2.6,0,4.6-2,4.6-4.5v-3
			C17,15.2,15.2,13.3,12.9,13z M3,7.5C3,3.9,5.5,1,8.5,1c3,0,5.5,2.9,5.5,6.5c0,3.6-2.5,6.5-5.5,6.5C5.5,14,3,11.1,3,7.5z M16,21
			c0,1.7-1.4,3-3.1,3H4.1C2.4,24,1,22.7,1,21v-4c0-1.7,1.4-3,3.1-3h1.2c1,0.6,2.1,1,3.2,1c1.2,0,2.3-0.4,3.2-1h1.2
			c1.7,0,3.1,1.3,3.1,3V21z"/>
	</g>
</g>
</svg>
