<?xml version="1.0" encoding="utf-8"?>
<!-- Generator: Adobe Illustrator 18.1.0, SVG Export Plug-In . SVG Version: 6.00 Build 0)  -->
<!DOCTYPE svg PUBLIC "-//W3C//DTD SVG 1.1//EN" "http://www.w3.org/Graphics/SVG/1.1/DTD/svg11.dtd">
<svg version="1.1" xmlns="http://www.w3.org/2000/svg" xmlns:xlink="http://www.w3.org/1999/xlink" x="0px" y="0px"
	 viewBox="0 0 32 64" enable-background="new 0 0 32 64" xml:space="preserve">
<g id="Layer_1" display="none">
	<g id="web_-_log_out_logout_exit" display="inline">
		<g>
			<path fill-rule="evenodd" clip-rule="evenodd" fill="#40301E" d="M4.5,25.5V5.6C4.5,5.3,4.7,5.1,5,5l10.5,1.5v-1L5,4
				C4.2,4,3.5,4.7,3.5,5.6v19.9C3.5,26.3,4.2,27,5,27l10.4-1.5v-1L5,26C4.7,26,4.5,25.8,4.5,25.5z M28.4,15.3
				C28.4,15.3,28.4,15.3,28.4,15.3c-0.1-0.1-0.2-0.2-0.3-0.2l-7.9-6C20,9,19.7,9,19.6,9.3c-0.1,0.2-0.1,0.5,0.2,0.7l6.7,5.1H8
				c-0.3,0-0.5,0.2-0.5,0.5C7.5,15.8,7.7,16,8,16h18.5l-6.8,5.1c-0.2,0.1-0.3,0.4-0.2,0.7c0.1,0.2,0.5,0.3,0.7,0.2l8-6
				c0,0,0.1,0,0.1-0.1c0,0,0,0,0,0C28.5,15.7,28.6,15.5,28.4,15.3z"/>
		</g>
	</g>
	<g id="web_-_log_out_logout_exit_2_" display="inline">
		<g>
			<path fill-rule="evenodd" clip-rule="evenodd" fill="#D8B791" d="M4.5,58.2V38.2c0-0.3,0.2-0.5,0.5-0.5l10.5,1.5v-1L5,36.7
				c-0.9,0-1.6,0.7-1.6,1.5v19.9c0,0.8,0.7,1.5,1.6,1.5l10.4-1.5v-1L5,58.7C4.7,58.7,4.5,58.4,4.5,58.2z M28.4,47.9
				C28.4,47.9,28.4,47.9,28.4,47.9c-0.1-0.1-0.2-0.2-0.3-0.2l-7.9-6c-0.2-0.1-0.6-0.1-0.7,0.2c-0.1,0.2-0.1,0.5,0.2,0.7l6.7,5.1H8
				c-0.3,0-0.5,0.2-0.5,0.5c0,0.3,0.2,0.5,0.5,0.5h18.5l-6.8,5.1c-0.2,0.1-0.3,0.4-0.2,0.7c0.1,0.2,0.5,0.3,0.7,0.2l8-6
				c0,0,0.1,0,0.1-0.1c0,0,0,0,0,0C28.5,48.4,28.6,48.1,28.4,47.9z"/>
		</g>
	</g>
	<rect x="-179.1" y="-135.5" display="inline" fill="#D8B791" width="75.8" height="75.8"/>
	<rect x="-179.1" y="-57.3" display="inline" fill="#40301E" width="75.8" height="75.8"/>
</g>
<g id="Layer_2">
	<g id="interface_-_cross_cancel">
		<g>
			<path fill-rule="evenodd" clip-rule="evenodd" fill="#40301E" d="M29,14.8l-12.5,0l0-12.5c0-0.3-0.2-0.5-0.5-0.5S15.5,2,15.5,2.3
				v12.5L3,14.8c-0.3,0-0.5,0.2-0.5,0.5c0,0.3,0.2,0.5,0.5,0.5h12.5v12.5c0,0.3,0.2,0.5,0.5,0.5c0.3,0,0.5-0.2,0.5-0.5l0-12.5H29
				c0.3,0,0.5-0.2,0.5-0.5S29.2,14.8,29,14.8z"/>
		</g>
	</g>
	<g id="interface_-_cross_cancel_2_">
		<g>
			<path fill-rule="evenodd" clip-rule="evenodd" fill="#D8B791" d="M29,48.1l-12.5,0l0-12.5c0-0.3-0.2-0.5-0.5-0.5
				s-0.5,0.2-0.5,0.5v12.5L3,48.1c-0.3,0-0.5,0.2-0.5,0.5c0,0.3,0.2,0.5,0.5,0.5h12.5v12.5c0,0.3,0.2,0.5,0.5,0.5
				c0.3,0,0.5-0.2,0.5-0.5l0-12.5H29c0.3,0,0.5-0.2,0.5-0.5S29.2,48.1,29,48.1z"/>
		</g>
	</g>
</g>
<g id="Layer_3" display="none">
	<g id="interface_-_arrow_bottom" display="inline">
		<g>
			<path fill-rule="evenodd" clip-rule="evenodd" fill="#40301E" d="M28.5,9.1c-0.3-0.2-0.8-0.1-1,0.2L16,22.3L4.5,9.3
				C4.3,9,3.9,8.9,3.5,9.1C3.2,9.3,3,9.7,3.2,10l12.1,13.6c0.1,0.2,0.4,0.3,0.6,0.3c0,0,0,0,0.1,0c0,0,0,0,0.1,0
				c0.2,0,0.5-0.1,0.6-0.3L28.8,10C29,9.7,28.8,9.3,28.5,9.1z"/>
		</g>
	</g>
	<g id="interface_-_arrow_bottom_2_" display="inline">
		<g>
			<path fill-rule="evenodd" clip-rule="evenodd" fill="#D8B791" d="M28.5,41.1c-0.3-0.2-0.8-0.1-1,0.2L16,54.3L4.5,41.4
				c-0.2-0.3-0.6-0.4-1-0.2C3.2,41.3,3,41.7,3.2,42l12.1,13.6c0.1,0.2,0.4,0.3,0.6,0.3c0,0,0,0,0.1,0c0,0,0,0,0.1,0
				c0.2,0,0.5-0.1,0.6-0.3L28.8,42C29,41.7,28.8,41.3,28.5,41.1z"/>
		</g>
	</g>
</g>
</svg>
