<?xml version="1.0" encoding="utf-8"?>
<!-- Generator: Adobe Illustrator 18.1.1, SVG Export Plug-In . SVG Version: 6.00 Build 0)  -->
<!DOCTYPE svg PUBLIC "-//W3C//DTD SVG 1.1//EN" "http://www.w3.org/Graphics/SVG/1.1/DTD/svg11.dtd">
<svg version="1.1" id="Layer_1" xmlns="http://www.w3.org/2000/svg" xmlns:xlink="http://www.w3.org/1999/xlink" x="0px" y="0px"
	 viewBox="349 0 256 801" enable-background="new 349 0 256 801" xml:space="preserve">
<g id="Layer_1_1_" display="none">
	<g id="web_-_log_out_logout_exit" display="inline">
		<g>
			<path fill="#40301E" d="M388.1,363.1V189c0-2.6,1.8-4.4,4.4-4.4l91.9,13.1V189l-91.9-14c-7.9,0-14,6.1-14,13.1v174.1
				c0.9,7.9,7,14,14,14l91-13.1v-8.8l-91,13.1C389.9,367.5,388.1,365.8,388.1,363.1z M597.2,273.9L597.2,273.9
				c-0.9-0.9-1.8-1.8-2.6-1.8l-69.1-52.5c-1.8-0.9-4.4-0.9-6.1,1.8c-0.9,1.8-0.9,4.4,1.8,6.1l58.6,44.6h-161c-2.6,0-4.4,1.8-4.4,4.4
				c0,1.8,1.8,3.5,4.4,3.5h161.9l-59.5,44.6c-1.8,0.9-2.6,3.5-1.8,6.1c0.9,1.8,4.4,2.6,6.1,1.8l70-52.5c0,0,0.9,0,0.9-0.9l0,0
				C598.1,277.4,598.1,275.6,597.2,273.9z"/>
		</g>
	</g>
</g>
<g id="Layer_2">
	<g id="interface_-_cross_cancel">
		<g>
			<path fill="#40301E" d="M486.1,140l84-84c1.8-1.7,1.8-4.4,0-6.1c-1.8-1.8-4.4-1.8-6.1,0L480,133l-84-84c-1.8-1.8-4.4-1.8-6.1,0
				c-1.8,1.7-1.8,4.4,0,6.1l84,84l-84,84c-1.8,1.8-1.8,4.4,0,6.1c1.8,1.8,4.4,1.8,6.1,0l84-84l84,84c1.8,1.8,4.4,1.8,6.1,0
				c1.8-1.8,1.8-4.4,0-6.1L486.1,140z"/>
		</g>
	</g>
	<g id="interface_-_cross_cancel_2_">
		<g>
			<path fill="#D8B791" d="M486.1,419.1l84-84c1.8-1.8,1.8-4.4,0-6.1c-1.8-1.8-4.4-1.8-6.1,0l-84,84l-84-84c-1.8-1.8-4.4-1.8-6.1,0
				c-1.8,1.8-1.8,4.4,0,6.1l84,84l-84,84c-1.8,1.8-1.8,4.4,0,6.1s4.4,1.8,6.1,0l84-84l84,84c1.8,1.8,4.4,1.8,6.1,0s1.8-4.4,0-6.1
				L486.1,419.1z"/>
		</g>
	</g>
</g>
<g id="interface_-_cross_cancel_1_">
	<g>
		<path fill="#F2F2F2" d="M485.6,675.6l84-84c1.8-1.8,1.8-4.4,0-6.1c-1.8-1.8-4.4-1.8-6.1,0l-84,83.1l-84-84c-1.8-1.8-4.4-1.8-6.1,0
			s-1.8,4.4,0,6.1l84,84l-84,84c-1.8,1.8-1.8,4.4,0,6.1s4.4,1.8,6.1,0l84-84l84,84c1.8,1.8,4.4,1.8,6.1,0c1.8-1.8,1.8-4.4,0-6.1
			L485.6,675.6z"/>
	</g>
</g>
</svg>
