<?xml version="1.0" encoding="utf-8"?>
<!-- Generator: Adobe Illustrator 18.1.0, SVG Export Plug-In . SVG Version: 6.00 Build 0)  -->
<!DOCTYPE svg PUBLIC "-//W3C//DTD SVG 1.1//EN" "http://www.w3.org/Graphics/SVG/1.1/DTD/svg11.dtd">
<svg version="1.1" id="Layer_3" xmlns="http://www.w3.org/2000/svg" xmlns:xlink="http://www.w3.org/1999/xlink" x="0px" y="0px"
	 viewBox="0 0 32 64" enable-background="new 0 0 32 64" xml:space="preserve">
<g id="interface_-_arrow_bottom">
	<g>
		<path fill-rule="evenodd" clip-rule="evenodd" fill="#40301E" d="M28.5,9.1c-0.3-0.2-0.8-0.1-1,0.2L16,22.3L4.5,9.3
			C4.3,9,3.9,8.9,3.5,9.1C3.2,9.3,3,9.7,3.2,10l12.1,13.6c0.1,0.2,0.4,0.3,0.6,0.3c0,0,0,0,0.1,0c0,0,0,0,0.1,0
			c0.2,0,0.5-0.1,0.6-0.3L28.8,10C29,9.7,28.8,9.3,28.5,9.1z"/>
	</g>
</g>
<g id="interface_-_arrow_bottom_2_">
	<g>
		<path fill-rule="evenodd" clip-rule="evenodd" fill="#D8B791" d="M28.5,41.1c-0.3-0.2-0.8-0.1-1,0.2L16,54.3L4.5,41.4
			c-0.2-0.3-0.6-0.4-1-0.2C3.2,41.3,3,41.7,3.2,42l12.1,13.6c0.1,0.2,0.4,0.3,0.6,0.3c0,0,0,0,0.1,0c0,0,0,0,0.1,0
			c0.2,0,0.5-0.1,0.6-0.3L28.8,42C29,41.7,28.8,41.3,28.5,41.1z"/>
	</g>
</g>
</svg>
