<?xml version="1.0" encoding="utf-8"?>
<!-- Generator: Adobe Illustrator 18.1.0, SVG Export Plug-In . SVG Version: 6.00 Build 0)  -->
<!DOCTYPE svg PUBLIC "-//W3C//DTD SVG 1.1//EN" "http://www.w3.org/Graphics/SVG/1.1/DTD/svg11.dtd">
<svg version="1.1" id="Layer_1" xmlns="http://www.w3.org/2000/svg" xmlns:xlink="http://www.w3.org/1999/xlink" x="0px" y="0px"
	 viewBox="0 0 556 429" enable-background="new 0 0 556 429" xml:space="preserve">
<g id="ecommerce_-_market_bag_shop">
	<g>
		<path fill-rule="evenodd" clip-rule="evenodd" fill="#507A8C" d="M21.4,407h-3.6c-0.5-1.7-2-3-3.9-3h-1c-1.8,0-3.4,1.3-3.9,3H5.6
			c-0.9,0-1.6,0.7-1.6,1.6v18.9c0,0.9,0.7,1.6,1.6,1.6h15.8c0.9,0,1.6-0.7,1.6-1.6v-18.9C23,407.7,22.3,407,21.4,407z M13,405h1
			c1.1,0,2.4,0.7,2.8,2h-6.6C10.6,405.7,11.9,405,13,405z M5.8,408H9c0,0,0,0,0,0v5h1v-5c0,0,0,0,0,0h7c0,0,0,0,0,0v5h1v-5
			c0,0,0,0,0,0h3.2c0.5,0,0.9,0.4,0.9,0.8V423H5v-14.2C5,408.4,5.4,408,5.8,408z M21.2,428H5.8c-0.5,0-0.9-0.4-0.9-0.8V424h17v3.2
			C22,427.6,21.6,428,21.2,428z"/>
	</g>
</g>
<g id="ecommerce_-_price_tag">
	<g>
		<path fill-rule="evenodd" clip-rule="evenodd" fill="#507A8C" d="M164.5,404l-8.5,6.8v16.6c0,0.9,0.7,1.6,1.5,1.6h13.9
			c0.9,0,1.5-0.7,1.5-1.6v-16.6L164.5,404z M172,427.4c0,0.3-0.2,0.6-0.5,0.6h-13.9c-0.3,0-0.5-0.3-0.5-0.6v-16.1l7.5-6l7.5,6V427.4
			z M162,427h1v-8h-1V427z M161,412.5c0,1.9,1.6,3.5,3.5,3.5c1.9,0,3.5-1.6,3.5-3.5c0-1.9-1.6-3.5-3.5-3.5
			C162.6,409,161,410.6,161,412.5z M167,412.5c0,1.4-1.1,2.5-2.5,2.5c-1.4,0-2.5-1.1-2.5-2.5c0-1.4,1.1-2.5,2.5-2.5
			C165.9,410,167,411.1,167,412.5z M166,427h1v-8h-1V427z"/>
	</g>
</g>
<g id="ecommerce_-_price_tag_1_">
	<g>
		<path fill-rule="evenodd" clip-rule="evenodd" fill="#507A8C" d="M87.5,404l-8.5,6.8v16.6c0,0.9,0.7,1.6,1.5,1.6h13.9
			c0.9,0,1.5-0.7,1.5-1.6v-16.6L87.5,404z M95,427.4c0,0.3-0.2,0.6-0.5,0.6H80.5c-0.3,0-0.5-0.3-0.5-0.6v-16.1l7.5-6l7.5,6V427.4z
			 M84,413.5c0,1.9,1.6,3.5,3.5,3.5c1.9,0,3.5-1.6,3.5-3.5c0-1.9-1.6-3.5-3.5-3.5C85.6,410,84,411.6,84,413.5z M90,413.5
			c0,1.4-1.1,2.5-2.5,2.5c-1.4,0-2.5-1.1-2.5-2.5c0-1.4,1.1-2.5,2.5-2.5C88.9,411,90,412.1,90,413.5z M83,426h9v-1h-9V426z"/>
	</g>
</g>
<g id="interface_-_arrow_bottom">
	<g>
		<path fill-rule="evenodd" clip-rule="evenodd" fill="#507A8C" d="M473.7,411.1c-0.3-0.1-0.6-0.1-0.7,0.2l-8.5,9.5l-8.5-9.5
			c-0.1-0.2-0.5-0.3-0.7-0.2c-0.3,0.1-0.3,0.4-0.2,0.7l8.9,10c0.1,0.2,0.3,0.2,0.4,0.2c0,0,0,0,0,0c0,0,0,0,0,0
			c0.2,0,0.4-0.1,0.4-0.2l8.9-10C474.1,411.5,474,411.2,473.7,411.1z"/>
	</g>
</g>
<g id="interface_-_arrow_right">
	<g>
		<path fill-rule="evenodd" clip-rule="evenodd" fill="#507A8C" d="M393,416.5C393,416.5,393,416.5,393,416.5c0-0.2-0.1-0.4-0.2-0.5
			l-10-8.9c-0.2-0.1-0.5-0.1-0.7,0.2c-0.1,0.3-0.1,0.6,0.2,0.7l9.5,8.5l-9.5,8.5c-0.2,0.1-0.3,0.5-0.2,0.7c0.1,0.3,0.4,0.3,0.7,0.2
			l10-8.9C392.9,416.9,393,416.7,393,416.5C393,416.5,393,416.5,393,416.5z"/>
	</g>
</g>
<g id="interface_-_arrow_top">
	<g>
		<path fill-rule="evenodd" clip-rule="evenodd" fill="#507A8C" d="M322.9,421.3l-8.9-10c-0.1-0.2-0.3-0.2-0.4-0.2c0,0,0,0,0,0
			c0,0,0,0,0,0c-0.2,0-0.4,0.1-0.4,0.2l-8.9,10c-0.1,0.2-0.1,0.5,0.2,0.7c0.3,0.1,0.6,0.1,0.7-0.2l8.5-9.5l8.5,9.5
			c0.1,0.2,0.5,0.3,0.7,0.2C323,421.8,323.1,421.5,322.9,421.3z"/>
	</g>
</g>
<g id="interface_-_arrow_left">
	<g>
		<path fill-rule="evenodd" clip-rule="evenodd" fill="#507A8C" d="M243.8,425l-9.5-8.5l9.5-8.5c0.2-0.1,0.3-0.5,0.2-0.7
			c-0.1-0.3-0.4-0.3-0.7-0.2l-10,8.9c-0.2,0.1-0.2,0.3-0.2,0.4c0,0,0,0,0,0c0,0,0,0,0,0c0,0.2,0.1,0.4,0.2,0.4l10,8.9
			c0.2,0.1,0.5,0.1,0.7-0.2C244.1,425.5,244,425.2,243.8,425z"/>
	</g>
</g>
<g id="interface_-_cmd_command">
	<g>
		<path fill-rule="evenodd" clip-rule="evenodd" fill="#507A8C" d="M548,420.1L548,420.1l-0.5,0c0,0,0,0,0,0s0,0,0,0H544v-7h4V413
			c2.2-0.3,4-2.1,4-4.4c0-2.5-2-4.5-4.5-4.5c-2.3,0-4.2,1.8-4.4,4H543v4h-7v-3.5c0,0,0,0,0,0s0,0,0,0V408h0c-0.3-2.2-2.1-4-4.4-4
			c-2.5,0-4.5,2-4.5,4.5c0,2.3,1.8,4.2,4,4.4v0.1h4v7h-4v0.1c-2.2,0.3-4,2.1-4,4.4c0,2.5,2,4.5,4.5,4.5c2.3,0,4.2-1.8,4.4-4h0v-0.5
			c0,0,0,0,0,0s0,0,0,0V421h7v4h0.1c0.3,2.2,2.1,4,4.4,4c2.5,0,4.5-2,4.5-4.5C552,422.2,550.2,420.3,548,420.1z M544,408L544,408
			c0.3-1.7,1.7-3,3.5-3c1.9,0,3.5,1.6,3.5,3.5c0,1.8-1.3,3.2-3,3.5v0.1h-3.3c0,0,0,0,0,0H544V408z M535,425L535,425
			c-0.3,1.7-1.7,3-3.5,3c-1.9,0-3.5-1.6-3.5-3.5c0-1.8,1.3-3.2,3-3.5V421h3.3c0,0,0,0,0,0h0.7v0h0V425z M535,412L535,412L535,412
			l-0.7,0c0,0,0,0,0,0H531V412c-1.7-0.2-3-1.7-3-3.5c0-1.9,1.6-3.5,3.5-3.5c1.8,0,3.2,1.3,3.4,3h0.1V412z M543,420h-7v-7h7V420z
			 M547.5,428c-1.8,0-3.2-1.3-3.4-3H544v-3.3c0,0,0,0,0,0V421h0v0h4v0.1c1.7,0.2,3,1.7,3,3.4C551,426.4,549.4,428,547.5,428z"/>
	</g>
</g>
<g id="weather_-_cloudy_cloud">
	<g>
		<path fill-rule="evenodd" clip-rule="evenodd" fill="#507A8C" d="M241.5,326c-3.6,0-6.8,2-8.4,5c0,0-0.1,0-0.1,0c-3.9,0-7,3.1-7,7
			c0,3.9,3.1,7,7,7h9v0c5-0.3,9-4.4,9-9.5C251,330.3,246.7,326,241.5,326z M243,343.9v0.1h-11v-0.1c-2.8-0.5-5-2.9-5-5.9
			c0-3.3,2.7-6,6-6c0.2,0,0.5,0,0.7,0c1.3-3,4.3-5,7.8-5c4.7,0,8.5,3.8,8.5,8.5C250,339.7,247,343.2,243,343.9z"/>
	</g>
</g>
<g id="weather_-_cloud_rainy">
	<g>
		<path fill-rule="evenodd" clip-rule="evenodd" fill="#507A8C" d="M167,341.4c0-0.1,0-0.1-0.1-0.1c0,0,0,0,0,0
			c-0.1-0.1-0.2-0.2-0.4-0.2h-4l3.4-5.3c0.2-0.2,0.1-0.5-0.2-0.7c-0.3-0.1-0.6-0.1-0.8,0.2l-3.8,5.9c-0.1,0.1-0.1,0.1-0.1,0.2
			c0,0,0,0,0,0.1c0,0,0,0,0,0c0,0,0,0,0,0.1c0,0,0,0.1,0,0.1c0.1,0.2,0.2,0.3,0.5,0.3h4l-3.4,5.3c-0.2,0.2-0.1,0.5,0.2,0.7
			c0.3,0.1,0.6,0.1,0.8-0.2l3.8-5.9c0.1-0.1,0.1-0.1,0.1-0.2c0,0,0,0,0-0.1c0,0,0,0,0,0C167,341.5,167,341.5,167,341.4
			C167,341.4,167,341.4,167,341.4z M167.5,323c-3.6,0-6.8,2-8.4,5c0,0-0.1,0-0.1,0c-3.9,0-7,3.1-7,7c0,3.5,2.6,6.4,6,6.9v-1
			c-2.8-0.5-5-2.9-5-5.9c0-3.3,2.7-6,6-6c0.2,0,0.5,0,0.7,0c1.3-3,4.3-5,7.8-5c4.7,0,8.5,3.8,8.5,8.5c0,4.2-3,7.7-7,8.4v1
			c4.5-0.7,8-4.6,8-9.4C177,327.3,172.7,323,167.5,323z"/>
	</g>
</g>
<g id="weather_-_cloud_rainy_1_">
	<g>
		<path fill-rule="evenodd" clip-rule="evenodd" fill="#507A8C" d="M82,348h1v-4h-1V348z M87,348h1v-4h-1V348z M92,348h1v-4h-1V348z
			 M90.5,323c-3.6,0-6.8,2-8.4,5c0,0-0.1,0-0.1,0c-3.9,0-7,3.1-7,7c0,3.9,3.1,7,7,7h9v0c5-0.3,9-4.4,9-9.5
			C100,327.3,95.7,323,90.5,323z M92,340.9v0.1H81v-0.1c-2.8-0.5-5-2.9-5-5.9c0-3.3,2.7-6,6-6c0.2,0,0.5,0,0.7,0c1.3-3,4.3-5,7.8-5
			c4.7,0,8.5,3.8,8.5,8.5C99,336.7,96,340.2,92,340.9z"/>
	</g>
</g>
<g id="weather_-_cloud_snow">
	<g>
		<path fill-rule="evenodd" clip-rule="evenodd" fill="#507A8C" d="M11,345h1v-1h-1V345z M13,348h1v-1h-1V348z M16,345h1v-1h-1V345z
			 M18,348h1v-1h-1V348z M18.5,323c-3.6,0-6.8,2-8.4,5c0,0-0.1,0-0.1,0c-3.9,0-7,3.1-7,7c0,3.9,3.1,7,7,7h9v0c5-0.3,9-4.4,9-9.5
			C28,327.3,23.7,323,18.5,323z M20,340.9v0.1H9v-0.1c-2.8-0.5-5-2.9-5-5.9c0-3.3,2.7-6,6-6c0.2,0,0.5,0,0.7,0c1.3-3,4.3-5,7.8-5
			c4.7,0,8.5,3.8,8.5,8.5C27,336.7,24,340.2,20,340.9z M21,345h1v-1h-1V345z"/>
	</g>
</g>
<g id="communication_-_email_envelope">
	<g>
		<path fill-rule="evenodd" clip-rule="evenodd" fill="#507A8C" d="M399.9,326.1c-0.1-0.1-0.4-0.2-0.5-0.1c0,0-0.1,0-0.1,0h-23.4
			c0,0-0.1,0-0.1,0c-0.2-0.1-0.4-0.1-0.5,0.1c-0.1,0.1-0.2,0.4-0.1,0.5c0,0,0,0.1,0,0.1v18.4c0,0.4,0.3,0.8,0.8,0.8h23.4
			c0.4,0,0.8-0.3,0.8-0.8v-18.4c0,0,0-0.1,0-0.1C400.1,326.5,400,326.3,399.9,326.1z M398,327l-10.5,7.9L377,327H398z M399,344.2
			c0,0.4-0.4,0.8-0.8,0.8h-21.4c-0.4,0-0.8-0.3-0.8-0.8v-16.4c0-0.1,0-0.2,0.1-0.3l11.1,8.3c0,0,0,0,0,0.1c0.1,0.1,0.2,0.1,0.4,0.1
			c0.1,0,0.3,0,0.4-0.1c0,0,0,0,0-0.1l11-8.3c0,0.1,0.1,0.2,0.1,0.3V344.2z"/>
	</g>
</g>
<g id="fitness_-_heart_blood_pressure">
	<g>
		<path fill-rule="evenodd" clip-rule="evenodd" fill="#507A8C" d="M319.8,326c-2.3,0-5.5,2.4-6.2,3.2c-0.8-0.8-3.9-3.2-6.2-3.2
			c-4.3,0-6.2,3.6-6.2,7.9c0,4.8,12.5,15.1,12.5,15.1s12.5-10.3,12.5-15.1C326,329.6,324.1,326,319.8,326z M324.5,335h-4.7l-1.9-2.9
			c-0.1-0.1-0.3-0.2-0.5-0.1c-0.2,0-0.4,0.1-0.5,0.2l-3.4,6.2l-1.6-3c-0.1-0.2-0.2-0.4-0.5-0.4h-4c-0.3,0-0.5,0.2-0.5,0.5
			c0,0.3,0.2,0.5,0.5,0.5h3.6l1.9,3.6c0,0.1,0.1,0.3,0.3,0.3c0,0,0.1,0,0.1,0c0,0,0,0,0,0c0.2,0.1,0.5,0,0.7-0.2l3.5-6.3l1.6,2.4
			c0.1,0.1,0.1,0.1,0.2,0.1c0.1,0,0.1,0.1,0.2,0.1h4.8c-1.8,3.4-7,8.5-10.8,11.7c-4.7-4-11.5-10.8-11.5-13.8c0-2.1,0.5-6.9,5.2-6.9
			c1.9,0,4.8,2.1,5.5,2.9l0.7,0.7l0.7-0.7c0.8-0.8,3.6-2.9,5.5-2.9c4.7,0,5.2,4.9,5.2,6.9c0,0.3-0.1,0.7-0.3,1.1
			C324.7,335,324.6,335,324.5,335z"/>
	</g>
</g>
<g id="music_-_cd_disk_vynil">
	<g>
		<path fill-rule="evenodd" clip-rule="evenodd" fill="#507A8C" d="M539.5,323c-3.1,0-5.9,1.1-8.1,3l0,0l-0.3,0.3
			c-2.5,2.3-4,5.5-4,9.2c0,6.9,5.6,12.5,12.5,12.5c3.1,0,5.9-1.1,8.1-3l0,0l0.3-0.3c2.5-2.3,4-5.5,4-9.2
			C552,328.6,546.4,323,539.5,323z M531.3,327.4l4.8,5.1c-0.3,0.4-0.6,0.8-0.8,1.3l-6.8-1.8C529.1,330.3,530.1,328.7,531.3,327.4z
			 M539.5,332c1.9,0,3.5,1.6,3.5,3.5c0,1.9-1.6,3.5-3.5,3.5c-1.9,0-3.5-1.6-3.5-3.5C536,333.6,537.6,332,539.5,332z M539.5,347
			c-6.4,0-11.5-5.1-11.5-11.5c0-0.9,0.1-1.7,0.3-2.5l6.8,1.8c0,0.2-0.1,0.5-0.1,0.7c0,2.5,2,4.5,4.5,4.5c1,0,1.9-0.3,2.6-0.8
			l4.8,5.1C544.9,346,542.3,347,539.5,347z M547.7,343.6l-4.8-5.1c0.3-0.4,0.6-0.8,0.8-1.3l6.8,1.8
			C549.9,340.7,548.9,342.3,547.7,343.6z M543.9,336.2c0-0.2,0.1-0.5,0.1-0.7c0-2.5-2-4.5-4.5-4.5c-1,0-1.9,0.3-2.6,0.8l-4.8-5.1
			c2-1.7,4.6-2.7,7.4-2.7c6.4,0,11.5,5.1,11.5,11.5c0,0.9-0.1,1.7-0.3,2.5L543.9,336.2z"/>
	</g>
</g>
<g id="editorial_-_bookmark">
	<g>
		<path fill-rule="evenodd" clip-rule="evenodd" fill="#507A8C" d="M457,323v25l7.5-6.2l7.5,6.2v-25H457z M471,345.9l-5.9-4.9
			l-0.6-0.5l-0.6,0.5l-5.9,4.9V324h13V345.9z"/>
	</g>
</g>
<g id="music_-_song_note_playlist">
	<g>
		<path fill-rule="evenodd" clip-rule="evenodd" fill="#507A8C" d="M530.5,256h10c0.3,0,0.5-0.2,0.5-0.5c0-0.3-0.2-0.5-0.5-0.5h-10
			c-0.3,0-0.5,0.2-0.5,0.5C530,255.8,530.2,256,530.5,256z M530.5,251h15c0.3,0,0.5-0.2,0.5-0.5c0-0.3-0.2-0.5-0.5-0.5h-15
			c-0.3,0-0.5,0.2-0.5,0.5C530,250.8,530.2,251,530.5,251z M530.5,246h15c0.3,0,0.5-0.2,0.5-0.5c0-0.3-0.2-0.5-0.5-0.5h-15
			c-0.3,0-0.5,0.2-0.5,0.5C530,245.8,530.2,246,530.5,246z M550,244h-1v13.2c-1.5-1.5-4.6-1.6-7.3-0.1c-3.1,1.7-4.5,4.9-3.3,7
			c1.3,2.1,4.8,2.5,7.8,0.7c2.6-1.4,4-3.9,3.7-5.9h0.1V244z M545.4,264.1c-2.7,1.4-5.4,1.2-6.2-0.5c-0.8-1.7,0.7-4.2,3.4-5.6
			c2.7-1.4,5.4-1.2,6.2,0.5C549.6,260.2,548.1,262.7,545.4,264.1z M535.5,260h-5c-0.3,0-0.5,0.2-0.5,0.5c0,0.3,0.2,0.5,0.5,0.5h5
			c0.3,0,0.5-0.2,0.5-0.5C536,260.2,535.8,260,535.5,260z"/>
	</g>
</g>
<g id="tool_-_camera">
	<g>
		<path fill-rule="evenodd" clip-rule="evenodd" fill="#507A8C" d="M475.4,247h-4l-1-2.2c0,0-0.7-1.8-1.6-1.8h-8.6
			c-0.9,0-1.6,1.8-1.6,1.8l-1,2.2h-4c-0.9,0-1.6,0.7-1.6,1.6v15.8c0,0.9,0.7,1.6,1.6,1.6h21.9c0.9,0,1.6-0.7,1.6-1.6v-15.8
			C477,247.7,476.3,247,475.4,247z M476,263c0,1.1-0.9,2-2,2h-19c-1.1,0-2-0.9-2-2v-13c0-1.1,0.9-2,2-2h3.2l1.3-2.9
			c0.2-0.5,0.5-1,0.7-1.1h8.5c0.2,0.1,0.5,0.7,0.8,1.2l1.3,2.8h3.2c1.1,0,2,0.9,2,2V263z M464.5,250c-3.6,0-6.5,2.9-6.5,6.5
			c0,3.6,2.9,6.5,6.5,6.5s6.5-2.9,6.5-6.5C471,252.9,468.1,250,464.5,250z M464.5,262c-3,0-5.5-2.5-5.5-5.5c0-3,2.5-5.5,5.5-5.5
			c3,0,5.5,2.5,5.5,5.5C470,259.5,467.5,262,464.5,262z"/>
	</g>
</g>
<g id="tool_-_camera_1_">
	<g>
		<path fill-rule="evenodd" clip-rule="evenodd" fill="#507A8C" d="M396.9,246h-3.6c-1-1.5-2.2-3-3.1-3h-5.4c-1,0-2.2,1.5-3.1,3
			h-3.6c-1.7,0-3.1,1.4-3.1,3.1v13.8c0,1.7,1.4,3.1,3.1,3.1h18.8c1.7,0,3.1-1.4,3.1-3.1v-13.8C400,247.4,398.6,246,396.9,246z
			 M384.8,244h5.4c0.4,0,1.1,0.8,1.9,2h-9.2C383.7,244.9,384.4,244,384.8,244z M399,263c0,1.1-0.9,2-2,2h-19c-1.1,0-2-0.9-2-2v-10h4
			v-1h-4v-2h4v-1h-4c0-1.1,0.9-2,2-2h19c1.1,0,2,0.9,2,2V263z M387.5,250c-3,0-5.5,2.5-5.5,5.5c0,3,2.5,5.5,5.5,5.5
			c3,0,5.5-2.5,5.5-5.5C393,252.5,390.5,250,387.5,250z M387.5,260c-2.5,0-4.5-2-4.5-4.5c0-2.5,2-4.5,4.5-4.5s4.5,2,4.5,4.5
			C392,258,390,260,387.5,260z"/>
	</g>
</g>
<g id="document_-_briefcase_case_bag">
	<g>
		<path fill-rule="evenodd" clip-rule="evenodd" fill="#507A8C" d="M322.9,246H318v-2.3c0-0.4-0.3-0.7-0.8-0.7h-7.5
			c-0.4,0-0.8,0.3-0.8,0.7v2.3h-4.9c-1.7,0-3.1,1.4-3.1,3.1v13.8c0,1.7,1.4,3.1,3.1,3.1h1.9v0h1v0h13v0h1v0h1.9
			c1.7,0,3.1-1.4,3.1-3.1v-13.8C326,247.4,324.6,246,322.9,246z M310,244h7v2h-7V244z M306,265h-2c-1.1,0-2-0.9-2-2v-10h4V265z
			 M307,265v-12h13v12H307z M325,263c0,1.1-0.9,2-2,2h-2v-12h4V263z M325,252h-23v-3c0-1.1,0.9-2,2-2h19c1.1,0,2,0.9,2,2V252z"/>
	</g>
</g>
<g id="document_-_briefcase_case_bag_1_">
	<g>
		<path fill-rule="evenodd" clip-rule="evenodd" fill="#507A8C" d="M247.9,246H243v-2.3c0-0.4-0.3-0.7-0.8-0.7h-7.5
			c-0.4,0-0.8,0.3-0.8,0.7v2.3h-4.9c-1.7,0-3.1,1.4-3.1,3.1v13.8c0,1.7,1.4,3.1,3.1,3.1h18.8c1.7,0,3.1-1.4,3.1-3.1v-13.8
			C251,247.4,249.6,246,247.9,246z M235,244h7v2h-7V244z M250,263c0,1.1-0.9,2-2,2h-19c-1.1,0-2-0.9-2-2v-10h23V263z M250,252h-23
			v-3c0-1.1,0.9-2,2-2h19c1.1,0,2,0.9,2,2V252z"/>
	</g>
</g>
<g id="communication_-_bubble_chat_talk_conversation">
	<g>
		<path fill-rule="evenodd" clip-rule="evenodd" fill="#507A8C" d="M174.7,243h-20.3c-1.3,0-2.3,1-2.3,2.3v15.4c0,1.3,1,2.3,2.3,2.3
			h6.8l3.4,3l3.4-3h6.8c1.3,0,2.3-1,2.3-2.3v-15.4C177,244,176,243,174.7,243z M176,260c0,1.1-0.9,2-2,2h-5l0,0v0h-1.5l0,0l-3,2.7
			l-3-2.7l0,0H160v0l0,0h-5c-1.1,0-2-0.9-2-2v-14c0-1.1,0.9-2,2-2h19c1.1,0,2,0.9,2,2V260z"/>
	</g>
</g>
<g id="communication_-_bubble_chat_group_conversation">
	<g>
		<path fill-rule="evenodd" clip-rule="evenodd" fill="#507A8C" d="M93,262c0,0.6-0.4,1-1,1h-4.5l-3,3l-3-3H77c-0.6,0-1-0.4-1-1v-12
			c0-0.6,0.4-1,1-1h2v-1h-2.2c-1,0-1.8,0.8-1.8,1.8v12.5c0,1,0.8,1.8,1.8,1.8H81l0,0l3.5,3l3.5-3l0,0h4.2c1,0,1.8-0.8,1.8-1.8V261
			h-1V262z M98.2,242H82.8c-1,0-1.8,0.8-1.8,1.8v12.5c0,1,0.8,1.8,1.8,1.8H87l0,0l3.5,3l3.5-3l0,0h4.2c1,0,1.8-0.8,1.8-1.8v-12.5
			C100,242.8,99.2,242,98.2,242z M99,256c0,0.6-0.4,1-1,1h-4.5l-3,3l-3-3H83c-0.6,0-1-0.4-1-1v-12c0-0.6,0.4-1,1-1h15
			c0.6,0,1,0.4,1,1V256z"/>
	</g>
</g>
<g id="communication_-_bubble_chat_talk_conversation_1_">
	<g>
		<path fill-rule="evenodd" clip-rule="evenodd" fill="#507A8C" d="M13.5,242C6.6,242,1,246.9,1,252.9c0,3.2,1.6,6.1,4.1,8.1L5,261
			v6l6.9-3.2c0.5,0.1,1.1,0.1,1.6,0.1c6.9,0,12.5-4.9,12.5-10.9C26,246.9,20.4,242,13.5,242z M13.5,263c-0.7,0-1.3-0.1-1.9-0.2
			l-0.3-0.1L6,265v-4.4c-2.4-1.8-4-4.5-4-7.6c0-5.5,5.1-10,11.5-10c6.4,0,11.5,4.5,11.5,10C25,258.5,19.9,263,13.5,263z"/>
	</g>
</g>
<g id="user_-_single_tick_done_valid">
	<g>
		<path fill-rule="evenodd" clip-rule="evenodd" fill="#507A8C" d="M307.1,176h1.2c1,0.6,2.1,1,3.2,1c1.2,0,2.3-0.4,3.2-1h1.2
			c1.4,0,2.5,0.8,2.9,2h0.9c-0.6-1.6-2.1-2.8-3.9-3c1.3-1.4,2.1-3.3,2.1-5.5c0-4.1-2.9-7.5-6.5-7.5c-3.6,0-6.5,3.4-6.5,7.5
			c0,2.2,0.8,4.2,2.1,5.5c-2.3,0.2-4.1,2.1-4.1,4.5v3c0,2.5,2.1,4.5,4.6,4.5h7.4v-1h-7.9c-1.7,0-3.1-1.3-3.1-3v-4
			C304,177.4,305.4,176,307.1,176z M306,169.5c0-3.6,2.5-6.5,5.5-6.5c3,0,5.5,2.9,5.5,6.5c0,3.6-2.5,6.5-5.5,6.5
			C308.5,176,306,173.1,306,169.5z M324,179.7l-0.7-0.7l-2.8,2.8l-2.8-2.8l-0.7,0.7l2.8,2.8l-2.8,2.8l0.7,0.7l2.8-2.8l2.8,2.8
			l0.7-0.7l-2.8-2.8L324,179.7z"/>
	</g>
</g>
<g id="user_-_single_tick_done_valid_1_">
	<g>
		<path fill-rule="evenodd" clip-rule="evenodd" fill="#507A8C" d="M232.1,176h1.2c1,0.6,2.1,1,3.2,1c1.2,0,2.3-0.4,3.2-1h1.2
			c1.4,0,2.5,0.8,2.9,2h0.9c-0.6-1.6-2.1-2.8-3.9-3c1.3-1.4,2.1-3.3,2.1-5.5c0-4.1-2.9-7.5-6.5-7.5c-3.6,0-6.5,3.4-6.5,7.5
			c0,2.2,0.8,4.2,2.1,5.5c-2.3,0.2-4.1,2.1-4.1,4.5v3c0,2.5,2.1,4.5,4.6,4.5h7.4v-1h-7.9c-1.7,0-3.1-1.3-3.1-3v-4
			C229,177.4,230.4,176,232.1,176z M231,169.5c0-3.6,2.5-6.5,5.5-6.5c3,0,5.5,2.9,5.5,6.5c0,3.6-2.5,6.5-5.5,6.5
			C233.5,176,231,173.1,231,169.5z M248.3,180l-4.8,4.8l-1.8-1.8l-0.7,0.7l2.3,2.3l0.2-0.2l0.2,0.2l5.3-5.3L248.3,180z"/>
	</g>
</g>
<g id="user_-_single_delete_remove">
	<g>
		<path fill-rule="evenodd" clip-rule="evenodd" fill="#507A8C" d="M158.1,176h1.2c1,0.6,2.1,1,3.2,1c1.2,0,2.3-0.4,3.2-1h1.2
			c1.4,0,2.5,0.8,2.9,2h0.9c-0.6-1.6-2.1-2.8-3.9-3c1.3-1.4,2.1-3.3,2.1-5.5c0-4.1-2.9-7.5-6.5-7.5c-3.6,0-6.5,3.4-6.5,7.5
			c0,2.2,0.8,4.2,2.1,5.5c-2.3,0.2-4.1,2.1-4.1,4.5v3c0,2.5,2.1,4.5,4.6,4.5h7.4v-1h-7.9c-1.7,0-3.1-1.3-3.1-3v-4
			C155,177.4,156.4,176,158.1,176z M157,169.5c0-3.6,2.5-6.5,5.5-6.5c3,0,5.5,2.9,5.5,6.5c0,3.6-2.5,6.5-5.5,6.5
			C159.5,176,157,173.1,157,169.5z M168,183v1h7v-1H168z"/>
	</g>
</g>
<g id="user_-_single_add">
	<g>
		<path fill-rule="evenodd" clip-rule="evenodd" fill="#507A8C" d="M81.1,176h1.2c1,0.6,2.1,1,3.2,1c1.2,0,2.3-0.4,3.2-1h1.2
			c1.4,0,2.5,0.8,2.9,2h0.9c-0.6-1.6-2.1-2.8-3.9-3c1.3-1.4,2.1-3.3,2.1-5.5c0-4.1-2.9-7.5-6.5-7.5c-3.6,0-6.5,3.4-6.5,7.5
			c0,2.2,0.8,4.2,2.1,5.5c-2.3,0.2-4.1,2.1-4.1,4.5v3c0,2.5,2.1,4.5,4.6,4.5H89v-1h-7.9c-1.7,0-3.1-1.3-3.1-3v-4
			C78,177.4,79.4,176,81.1,176z M80,169.5c0-3.6,2.5-6.5,5.5-6.5c3,0,5.5,2.9,5.5,6.5c0,3.6-2.5,6.5-5.5,6.5
			C82.5,176,80,173.1,80,169.5z M95,183v-3h-1v3h-3v1h3v3h1v-3h3v-1H95z"/>
	</g>
</g>
<g id="user_-_single">
	<g>
		<path fill-rule="evenodd" clip-rule="evenodd" fill="#507A8C" d="M15.9,175.1c1.3-1.4,2.1-3.3,2.1-5.5c0-4.1-2.9-7.5-6.5-7.5
			c-3.6,0-6.5,3.4-6.5,7.5c0,2.2,0.8,4.2,2.1,5.5c-2.3,0.2-4.1,2.1-4.1,4.5v3c0,2.5,2.1,4.5,4.6,4.5h7.7c2.6,0,4.6-2,4.6-4.5v-3
			C20,177.2,18.2,175.3,15.9,175.1z M6,169.5c0-3.6,2.5-6.5,5.5-6.5c3,0,5.5,2.9,5.5,6.5c0,3.6-2.5,6.5-5.5,6.5
			C8.5,176,6,173.1,6,169.5z M19,183c0,1.7-1.4,3-3.1,3H7.1c-1.7,0-3.1-1.3-3.1-3v-4c0-1.7,1.4-3,3.1-3h1.2c1,0.6,2.1,1,3.2,1
			c1.2,0,2.3-0.4,3.2-1h1.2c1.7,0,3.1,1.3,3.1,3V183z"/>
	</g>
</g>
<g id="web_-_log_out_logout_exit">
	<g>
		<path fill-rule="evenodd" clip-rule="evenodd" fill="#507A8C" d="M376,184.5v-19.9c0-0.3,0.2-0.5,0.5-0.5l10.5,1.5v-1l-10.4-1.5
			c-0.9,0-1.6,0.7-1.6,1.5v19.9c0,0.8,0.7,1.5,1.6,1.5l10.4-1.5v-1l-10.5,1.5C376.2,185,376,184.8,376,184.5z M399.9,174.3
			C399.9,174.2,399.9,174.2,399.9,174.3c-0.1-0.1-0.2-0.2-0.3-0.2l-7.9-6c-0.2-0.1-0.6-0.1-0.7,0.2s-0.1,0.5,0.2,0.7l6.7,5.1h-18.5
			c-0.3,0-0.5,0.2-0.5,0.5c0,0.3,0.2,0.5,0.5,0.5H398l-6.8,5.1c-0.2,0.1-0.3,0.4-0.2,0.7c0.1,0.2,0.5,0.3,0.7,0.2l8-6
			c0,0,0.1,0,0.1-0.1c0,0,0,0,0,0C400,174.7,400.1,174.5,399.9,174.3z"/>
	</g>
</g>
<g id="location_-_pin_map">
	<g>
		<path fill-rule="evenodd" clip-rule="evenodd" fill="#507A8C" d="M471.5,186h-6.1c2.4-2.7,8.6-10.4,8.6-14.6
			c0-5.2-4.3-9.4-9.5-9.4c-5.2,0-9.5,4.2-9.5,9.4c0,4.2,6.3,11.9,8.6,14.6h-6.1c-0.3,0-0.5,0.2-0.5,0.5c0,0.3,0.2,0.5,0.5,0.5h7l0,0
			l0,0h7c0.3,0,0.5-0.2,0.5-0.5C472,186.2,471.8,186,471.5,186z M464.5,163c4.7,0,8.5,3.8,8.5,8.4c0,3.6-5.6,10.8-8.5,14.1
			c-2.9-3.4-8.5-10.5-8.5-14.1C456,166.8,459.8,163,464.5,163z"/>
	</g>
</g>
<g id="music_-_song_note">
	<g>
		<path fill-rule="evenodd" clip-rule="evenodd" fill="#507A8C" d="M556,164v-1h-1v0.2l-14,2.8h0v0l0,0l0,0V178
			c-1.4-1.3-4.2-1.3-6.6,0c-2.8,1.6-4.1,4.4-3,6.3c1.2,1.9,4.4,2.2,7.2,0.7c2.2-1.2,3.5-3.3,3.4-5h0v-13.2l13-2.6V175
			c-1.4-1.3-4.2-1.3-6.6,0c-2.8,1.6-4.1,4.4-3,6.3c1.2,1.9,4.4,2.2,7.2,0.7c2.2-1.2,3.5-3.3,3.4-5h0V164L556,164L556,164z
			 M537.8,184.2c-2.4,1.2-4.9,1-5.6-0.5c-0.7-1.5,0.7-3.7,3-4.9c2.4-1.2,4.9-1,5.6,0.5C541.5,180.8,540.2,183,537.8,184.2z
			 M551.8,181.2c-2.4,1.2-4.9,1-5.6-0.5c-0.7-1.5,0.7-3.7,3-4.9c2.4-1.2,4.9-1,5.6,0.5C555.5,177.8,554.2,180,551.8,181.2z"/>
	</g>
</g>
<g id="web_-_browser_tab">
	<g>
		<path fill-rule="evenodd" clip-rule="evenodd" fill="#507A8C" d="M319.5,85h-15.9c-0.8,0-1.5,0.7-1.5,1.5v15.9
			c0,0.8,0.7,1.5,1.5,1.5h15.9c0.8,0,1.5-0.7,1.5-1.5V86.5C321,85.7,320.3,85,319.5,85z M320,102.2c0,0.4-0.3,0.8-0.8,0.8h-15.5
			c-0.4,0-0.8-0.3-0.8-0.8V86.8c0-0.4,0.3-0.8,0.8-0.8h15.5c0.4,0,0.8,0.3,0.8,0.8V102.2z M324.4,80h-15.8c-0.9,0-1.6,0.7-1.6,1.6
			V83h1v-1.2c0-0.4,0.4-0.8,0.8-0.8h15.4c0.4,0,0.8,0.4,0.8,0.8v15.4c0,0.4-0.4,0.8-0.8,0.8H323v1h1.4c0.9,0,1.6-0.7,1.6-1.6V81.6
			C326,80.7,325.3,80,324.4,80z"/>
	</g>
</g>
<g id="web_-_share_network">
	<g>
		<path fill-rule="evenodd" clip-rule="evenodd" fill="#507A8C" d="M395.5,93c-1.9,0-3.5,1.2-4.2,2.8l-7.5-3.3
			c0.1-0.3,0.1-0.7,0.1-1.1c0-0.4-0.1-0.7-0.1-1.1l7.5-3.3c0.7,1.7,2.3,2.8,4.2,2.8c2.5,0,4.5-2,4.5-4.5c0-2.5-2-4.5-4.5-4.5
			s-4.5,2-4.5,4.5c0,0.2,0,0.5,0.1,0.7l-7.6,3.3c-0.7-1.5-2.2-2.5-4-2.5c-2.5,0-4.5,2-4.5,4.5s2,4.5,4.5,4.5c1.8,0,3.3-1,4-2.5
			l7.6,3.3c0,0.2-0.1,0.4-0.1,0.7c0,2.5,2,4.5,4.5,4.5s4.5-2,4.5-4.5C400,95,398,93,395.5,93z M395.5,82c1.9,0,3.5,1.6,3.5,3.5
			c0,1.9-1.6,3.5-3.5,3.5c-1.9,0-3.5-1.6-3.5-3.5C392,83.6,393.6,82,395.5,82z M379.5,95c-1.9,0-3.5-1.6-3.5-3.5
			c0-1.9,1.6-3.5,3.5-3.5c1.9,0,3.5,1.6,3.5,3.5C383,93.4,381.4,95,379.5,95z M395.5,101c-1.9,0-3.5-1.6-3.5-3.5
			c0-1.9,1.6-3.5,3.5-3.5c1.9,0,3.5,1.6,3.5,3.5C399,99.4,397.4,101,395.5,101z"/>
	</g>
</g>
<g id="web_-_download_arrow">
	<g>
		<path fill-rule="evenodd" clip-rule="evenodd" fill="#507A8C" d="M549.5,94c-0.3,0-0.5,0.2-0.5,0.5v5.5h-21v-5.5
			c0-0.3-0.2-0.5-0.5-0.5c-0.3,0-0.5,0.2-0.5,0.5v6c0,0.3,0.2,0.5,0.5,0.5h22c0.3,0,0.5-0.2,0.5-0.5v-6C550,94.2,549.8,94,549.5,94z
			 M538.1,96.8C538.1,96.9,538.1,96.9,538.1,96.8c0.1,0.1,0.2,0.2,0.4,0.2c0.1,0,0.3,0,0.4-0.1c0,0,0,0,0,0l5-5
			c0.2-0.2,0.2-0.5,0-0.7c-0.2-0.2-0.5-0.2-0.7,0l-4.1,4.1V82.5c0-0.3-0.2-0.5-0.5-0.5c-0.3,0-0.5,0.2-0.5,0.5v12.8l-4.1-4.1
			c-0.2-0.2-0.5-0.2-0.7,0c-0.2,0.2-0.2,0.5,0,0.7L538.1,96.8z"/>
	</g>
</g>
<g id="web_-_upload_arrow">
	<g>
		<path fill-rule="evenodd" clip-rule="evenodd" fill="#507A8C" d="M475.5,94c-0.3,0-0.5,0.2-0.5,0.5v5.5h-21v-5.5
			c0-0.3-0.2-0.5-0.5-0.5c-0.3,0-0.5,0.2-0.5,0.5v6c0,0.3,0.2,0.5,0.5,0.5h22c0.3,0,0.5-0.2,0.5-0.5v-6C476,94.2,475.8,94,475.5,94z
			 M459.9,87.8l4.1-4.1v12.8c0,0.3,0.2,0.5,0.5,0.5c0.3,0,0.5-0.2,0.5-0.5V83.7l4.1,4.1c0.2,0.2,0.5,0.2,0.7,0
			c0.2-0.2,0.2-0.5,0-0.7l-5-5c0,0,0,0,0,0c-0.1-0.1-0.2-0.1-0.4-0.1c-0.1,0-0.3,0-0.4,0.1c0,0,0,0,0,0l-5,5c-0.2,0.2-0.2,0.5,0,0.7
			C459.4,88,459.7,88,459.9,87.8z"/>
	</g>
</g>
<g id="interface_-_like_heart_love">
	<g>
		<path fill="#507A8C" d="M244,79c-2.3,0-5.5,4-5.5,4s-3.1-4-5.5-4c-4.7,0-7,2.4-7,7.3c0,4.6,12.5,17.7,12.5,17.7S251,91,251,86.3
			C251,81.4,248.7,79,244,79z M227,86.3c0-4.4,1.9-6.3,6-6.3c1.3,0,3.5,2.1,4.7,3.6l0.8,1l0.8-1c1.2-1.5,3.4-3.6,4.7-3.6
			c4.2,0,6,1.9,6,6.3c0,2.9-6.8,11.2-11.5,16.2C233.8,97.5,227,89.3,227,86.3z"/>
	</g>
</g>
<g id="interface_-_circle_right_true">
	<g>
		<path fill-rule="evenodd" clip-rule="evenodd" fill="#507A8C" d="M164.5,79c-6.9,0-12.5,5.6-12.5,12.5c0,6.9,5.6,12.5,12.5,12.5
			c6.9,0,12.5-5.6,12.5-12.5C177,84.6,171.4,79,164.5,79z M164.5,103c-6.4,0-11.5-5.1-11.5-11.5c0-6.4,5.1-11.5,11.5-11.5
			c6.4,0,11.5,5.1,11.5,11.5C176,97.9,170.9,103,164.5,103z"/>
	</g>
</g>
<g id="interface_-_tick_done">
	<g>
		<path fill-rule="evenodd" clip-rule="evenodd" fill="#507A8C" d="M98.8,83.1c-0.2-0.2-0.5-0.2-0.7,0L82.5,98.8l-6.6-6.6
			c-0.2-0.2-0.5-0.2-0.7,0c-0.2,0.2-0.2,0.5,0,0.7l7,7c0.1,0.1,0.2,0.2,0.4,0.2c0.1,0,0.3,0,0.4-0.2l16-16
			C99,83.7,99,83.3,98.8,83.1z"/>
	</g>
</g>
<g id="interface_-_cross_cancel">
	<g>
		<path fill-rule="evenodd" clip-rule="evenodd" fill="#507A8C" d="M12.2,91.5l9.6-9.6c0.2-0.2,0.2-0.5,0-0.7
			c-0.2-0.2-0.5-0.2-0.7,0l-9.6,9.6l-9.6-9.6c-0.2-0.2-0.5-0.2-0.7,0c-0.2,0.2-0.2,0.5,0,0.7l9.6,9.6l-9.6,9.6
			c-0.2,0.2-0.2,0.5,0,0.7c0.2,0.2,0.5,0.2,0.7,0l9.6-9.6l9.6,9.6c0.2,0.2,0.5,0.2,0.7,0c0.2-0.2,0.2-0.5,0-0.7L12.2,91.5z"/>
	</g>
</g>
<g id="document_-_folder">
	<g>
		<path fill-rule="evenodd" clip-rule="evenodd" fill="#507A8C" d="M19.8,3H13c-0.1-1.7-1.5-3-3.2-3H3.3C1.5,0,0,1.5,0,3.3v18.7
			C0,23.6,1.4,25,3.1,25h16.9c1.7,0,3.1-1.4,3.1-3.1V6.2C23,4.4,21.6,3,19.8,3z M22,22c0,1.1-0.9,2-2,2H3c-1.1,0-2-0.9-2-2V9h21V22z
			 M1,8V3c0-1.1,0.9-2,2-2h7c1.1,0,2,0.9,2,2v1h8c1.1,0,2,0.9,2,2v2H1z"/>
	</g>
</g>
<g id="document_-_folder_1_">
	<g>
		<path fill-rule="evenodd" clip-rule="evenodd" fill="#507A8C" d="M98.4,3H85.9V1.6c0-0.9-0.7-1.6-1.6-1.6h-7.8
			C75.7,0,75,0.7,75,1.6v21.9c0,0.9,0.7,1.6,1.6,1.6h21.9c0.9,0,1.6-0.7,1.6-1.6V4.6C100,3.7,99.3,3,98.4,3z M99,23.2
			c0,0.4-0.4,0.8-0.8,0.8H76.8c-0.4,0-0.8-0.4-0.8-0.8V7h23V23.2z M98.3,6H76V1.8C76,1.3,76.4,1,76.8,1h7.4C84.6,1,85,1.3,85,1.8V4
			h13.2C98.7,4,99,4.5,99,5C99,5.6,98.7,6,98.3,6z"/>
	</g>
</g>
<g id="document_-_file_blank">
	<g>
		<path fill-rule="evenodd" clip-rule="evenodd" fill="#507A8C" d="M175,6.3L175,6.3l0-0.3h-0.3L169,0.3V0h-0.3l0,0l0,0h-14
			c-0.4,0-0.8,0.4-0.8,0.8v23.4c0,0.4,0.3,0.8,0.8,0.8h19.5c0.4,0,0.8-0.3,0.8-0.8L175,6.3L175,6.3z M173.2,24h-17.4
			c-0.4,0-0.8-0.4-0.8-0.8V1.8c0-0.4,0.3-0.8,0.8-0.8H167v6h0v1h7V7h-6V1h0.3l5.7,5.7v16.5C174,23.7,173.6,24,173.2,24z"/>
	</g>
</g>
<g id="document_-_notebook_pen_book_notes">
	<g>
		<path fill-rule="evenodd" clip-rule="evenodd" fill="#507A8C" d="M247.5,18h-10c-0.3,0-0.5,0.2-0.5,0.5c0,0.3,0.2,0.5,0.5,0.5h10
			c0.3,0,0.5-0.2,0.5-0.5C248,18.2,247.8,18,247.5,18z M230.5,0h-3c-0.8,0-1.5,0.7-1.5,1.6v21.9c0,0.9,0.7,1.6,1.5,1.6h3
			c0.8,0,1.5-0.7,1.5-1.6V1.6C232,0.7,231.3,0,230.5,0z M231,23c0,0.6-0.4,1-1,1h-2c-0.6,0-1-0.4-1-1V12h4V23z M231,11h-4V2
			c0-0.6,0.4-1,1-1h2c0.6,0,1,0.4,1,1V11z M247.5,13h-10c-0.3,0-0.5,0.2-0.5,0.5s0.2,0.5,0.5,0.5h10c0.3,0,0.5-0.2,0.5-0.5
			S247.8,13,247.5,13z M249.5,2H248V0h-1v2h-4V0h-1v2h-4V0h-1v2h-1.5c-0.9,0-1.5,0.7-1.5,1.5v19.9c0,0.8,0.7,1.5,1.5,1.5h13.9
			c0.9,0,1.5-0.7,1.5-1.5V3.5C251,2.7,250.3,2,249.5,2z M250,23.2c0,0.4-0.3,0.8-0.8,0.8h-13.4c-0.4,0-0.8-0.3-0.8-0.8V3.8
			c0-0.4,0.3-0.8,0.8-0.8h13.4c0.4,0,0.8,0.3,0.8,0.8V23.2z M247.5,8h-10c-0.3,0-0.5,0.2-0.5,0.5c0,0.3,0.2,0.5,0.5,0.5h10
			c0.3,0,0.5-0.2,0.5-0.5C248,8.2,247.8,8,247.5,8z"/>
	</g>
</g>
<g id="document_-_article_column_newspaper_news">
	<g>
		<path fill-rule="evenodd" clip-rule="evenodd" fill="#507A8C" d="M322.9,0h-18.8c-1.7,0-3.1,1.4-3.1,3.1v18.8
			c0,1.7,1.4,3.1,3.1,3.1h18.8c1.7,0,3.1-1.4,3.1-3.1V3.1C326,1.4,324.6,0,322.9,0z M325,22c0,1.1-0.9,2-2,2h-19c-1.1,0-2-0.9-2-2V6
			h16v18h1V6h6V22z M325,5h-23V3c0-1.1,0.9-2,2-2h19c1.1,0,2,0.9,2,2V5z M314.5,15h-9c-0.3,0-0.5,0.2-0.5,0.5c0,0.3,0.2,0.5,0.5,0.5
			h9c0.3,0,0.5-0.2,0.5-0.5C315,15.2,314.8,15,314.5,15z M314.5,11h-9c-0.3,0-0.5,0.2-0.5,0.5c0,0.3,0.2,0.5,0.5,0.5h9
			c0.3,0,0.5-0.2,0.5-0.5C315,11.2,314.8,11,314.5,11z M314.5,19h-9c-0.3,0-0.5,0.2-0.5,0.5c0,0.3,0.2,0.5,0.5,0.5h9
			c0.3,0,0.5-0.2,0.5-0.5C315,19.2,314.8,19,314.5,19z"/>
	</g>
</g>
<g id="media_-_clip_video_film">
	<g>
		<path fill-rule="evenodd" clip-rule="evenodd" fill="#507A8C" d="M465,7h2V6h-2V7z M465,19h2v-1h-2V19z M473,19h2v-1h-2V19z
			 M475,6h-2v1h2V6z M469,19h2v-1h-2V19z M475.4,3h-10.9c-0.2,0-0.4,0-0.6,0.1c-0.1-1.2-1.1-2.1-2.2-2.1h-7.5C453,1,452,2,452,3.3
			v18.4c0,1.3,1,2.3,2.2,2.3h7.5c1.2,0,2.1-0.9,2.2-2.1c0,0,0,0,0,0V4.8c0-0.4,0.4-0.8,0.8-0.8h10.4c0.4,0,0.8,0.3,0.8,0.8v15.4
			c0,0.4-0.4,0.8-0.8,0.8H468v1h7.4c0.9,0,1.6-0.7,1.6-1.5V4.5C477,3.7,476.3,3,475.4,3z M463,22c0,0.6-0.4,1-1,1h-8
			c-0.6,0-1-0.4-1-1v-1h10V22z M463,20h-10V5h10V20z M463,4h-10V3c0-0.6,0.4-1,1-1h8c0.6,0,1,0.4,1,1V4z M471,6h-2v1h2V6z"/>
	</g>
</g>
<g id="location_-_pin_map_1_">
	<g>
		<path fill-rule="evenodd" clip-rule="evenodd" fill="#507A8C" d="M540.5,0c-5.2,0-9.5,4.2-9.5,9.4c0,5.2,9.5,15.6,9.5,15.6
			S550,14.6,550,9.4C550,4.2,545.7,0,540.5,0z M532,9.4c0-4.6,3.8-8.4,8.5-8.4c4.7,0,8.5,3.8,8.5,8.4c0,3.6-5.6,10.8-8.5,14.1
			C537.6,20.1,532,13,532,9.4z M540.5,5C538,5,536,7,536,9.5c0,2.5,2,4.5,4.5,4.5s4.5-2,4.5-4.5C545,7,543,5,540.5,5z M540.5,13
			c-1.9,0-3.5-1.6-3.5-3.5c0-1.9,1.6-3.5,3.5-3.5c1.9,0,3.5,1.6,3.5,3.5C544,11.4,542.4,13,540.5,13z"/>
	</g>
</g>
<g id="interior_-_interior_home__cabinets">
	<g>
		<path fill-rule="evenodd" clip-rule="evenodd" fill="#507A8C" d="M399.2,0h-23.5c-0.4,0-0.8,0.3-0.8,0.8v23.4
			c0,0.4,0.3,0.8,0.8,0.8h23.5c0.4,0,0.8-0.3,0.8-0.8V0.8C400,0.4,399.7,0,399.2,0z M376,2c0-0.6,0.4-1,1-1h10v18h-11V2z M399,23
			c0,0.6-0.4,1-1,1h-21c-0.6,0-1-0.4-1-1v-3h23V23z M399,19h-11V1h10c0.6,0,1,0.4,1,1V19z M391,13h1V9h-1V13z M383,13h1V9h-1V13z"/>
	</g>
</g>
</svg>
