<?xml version="1.0" encoding="utf-8"?>
<!-- Generator: Adobe Illustrator 18.1.1, SVG Export Plug-In . SVG Version: 6.00 Build 0)  -->
<!DOCTYPE svg PUBLIC "-//W3C//DTD SVG 1.1//EN" "http://www.w3.org/Graphics/SVG/1.1/DTD/svg11.dtd">
<svg version="1.1" id="Layer_1" xmlns="http://www.w3.org/2000/svg" xmlns:xlink="http://www.w3.org/1999/xlink" x="0px" y="0px"
	 viewBox="0 0 930.9 104" enable-background="new 0 0 930.9 104" xml:space="preserve">
<path fill="#BCAA96" d="M73.6,93.1c0.7,0,1.3-0.6,1.3-1.3V79.5c0-0.7-0.6-1.3-1.3-1.3H29.7V59.9H68c0.7,0,1.3-0.6,1.3-1.3V46.2
	c0-0.7-0.6-1.3-1.3-1.3H29.7V26.7h43.9c0.7,0,1.3-0.6,1.3-1.3V13.1c0-0.7-0.6-1.3-1.3-1.3H14.7c-0.7,0-1.3,0.6-1.3,1.3v78.7
	c0,0.7,0.6,1.3,1.3,1.3L73.6,93.1L73.6,93.1z M102.5,52.5c0-15.3,10.6-26.9,24.7-26.9c7.6,0,14.2,2.9,21.2,9.4
	c0.3,0.1,0.6,0.3,0.9,0.3h0.1c0.3,0,0.7-0.1,0.9-0.4l8.9-10.3c0.4-0.4,0.4-1.3-0.1-1.7c-6.6-6.3-15.4-12.6-31.7-12.6
	c-11.7,0-22.5,4.4-30.2,12.3c-7.6,7.9-11.7,18.3-11.7,29.7S89.6,74.2,97.2,82c7.7,8,18.4,12.3,30.2,12.3c16.3,0,25.2-6.4,31.7-12.6
	c0.4-0.4,0.6-1.1,0.1-1.7l-8.9-10.3c-0.1-0.3-0.6-0.4-0.9-0.4h-0.2c-0.3,0-0.6,0.1-0.9,0.3c-7,6.6-13.6,9.4-21.2,9.4
	C113.2,79.4,102.5,67.8,102.5,52.5 M240.3,93.1c0.7,0,1.3-0.6,1.3-1.3V13.1c0-0.7-0.6-1.3-1.3-1.3h-13.9c-0.7,0-1.3,0.6-1.3,1.3V45
	h-35V13.1c0-0.7-0.6-1.3-1.3-1.3h-13.9c-0.7,0-1.3,0.6-1.3,1.3v78.7c0,0.7,0.6,1.3,1.3,1.3h13.9c0.7,0,1.3-0.6,1.3-1.3V59.9h35v31.9
	c0,0.7,0.6,1.3,1.3,1.3L240.3,93.1L240.3,93.1z M323.7,52.5c0,15.3-11,26.9-25.5,26.9c-14.6,0-25.5-11.6-25.5-26.9
	s11-26.9,25.5-26.9S323.7,37.2,323.7,52.5 M341,52.5c0-11.3-4.3-21.9-11.9-29.6c-7.9-8-18.7-12.4-30.6-12.4s-22.7,4.4-30.6,12.4
	c-7.7,7.9-11.9,18.4-11.9,29.6c0,11.3,4.3,21.9,11.9,29.6c7.9,8,18.7,12.4,30.6,12.4s22.7-4.4,30.6-12.4
	C336.7,74.4,341,63.8,341,52.5"/>
<g>
	<path fill="#BCAA96" d="M496,41.8v-1.9c0-0.2-0.2-0.5-0.5-0.5h-14.6v-8.6h13c0.2,0,0.5-0.2,0.5-0.5v-1.9c0-0.2-0.2-0.5-0.5-0.5h-13
		v-8.4h14.4c0.2,0,0.5-0.2,0.5-0.5v-1.9c0-0.2-0.2-0.5-0.5-0.5h-16.7c-0.2,0-0.5,0.2-0.5,0.5v23v1.4c0,0.2,0.2,0.5,0.5,0.5h0.5h16.5
		C495.8,42.3,496,42,496,41.8 M522.3,41.8V18.3c0-0.2-0.2-0.5-0.5-0.5h-1.9c-0.2,0-0.5,0.2-0.5,0.5v19L504.3,18
		c-0.2-0.2-0.7-0.2-0.7-0.2h-1.9c-0.2,0-0.5,0.2-0.5,0.5v23.5c0,0.2,0.2,0.5,0.5,0.5h1.9c0.2,0,0.5-0.2,0.5-0.5V22.3L519.7,42
		c0.2,0.2,0.7,0.2,0.7,0.2h1.4C522.1,42.3,522.3,42,522.3,41.8 M546.2,20.4c0.2,0,0.5-0.2,0.5-0.5V18c0-0.2-0.2-0.5-0.5-0.5h-18.4
		c-0.2,0-0.5,0.2-0.5,0.5v1.9c0,0.2,0.2,0.5,0.5,0.5h7.9v20.9v0.5c0,0.2,0.2,0.5,0.5,0.5h2.1c0.2,0,0.5-0.2,0.5-0.5v-0.5V20.4H546.2
		z M569.7,41.8v-1.9c0-0.2-0.2-0.5-0.5-0.5h-14.6v-8.6h13c0.2,0,0.5-0.2,0.5-0.5v-1.9c0-0.2-0.2-0.5-0.5-0.5h-13v-8.4H569
		c0.2,0,0.5-0.2,0.5-0.5v-1.9c0-0.2-0.2-0.5-0.5-0.5h-16.7c-0.2,0-0.5,0.2-0.5,0.5v23v1.4c0,0.2,0.2,0.5,0.5,0.5h0.5h16.4
		C569.4,42.3,569.7,42,569.7,41.8 M585.5,30.2h-7.4v-10h7.4c3.9,0,6.3,1.9,6.3,4.9C591.7,28.3,589.2,30.2,585.5,30.2 M595.2,41.8
		l-7.2-9.5c3.7-0.7,6.5-3,6.5-7.2c0-4.4-3.5-7.2-8.8-7.2h-10c-0.2,0-0.5,0.2-0.5,0.5v23.5c0,0.2,0.2,0.5,0.5,0.5h2.1
		c0.2,0,0.5-0.2,0.5-0.5v-9.1h7l7,9.3c0.2,0.2,0.7,0.2,0.7,0.2h2.3C595,42.3,595.2,42,595.2,41.8 M617.3,20.4c0.2,0,0.5-0.2,0.5-0.5
		V18c0-0.2-0.2-0.5-0.5-0.5h-18.4c-0.2,0-0.5,0.2-0.5,0.5v1.9c0,0.2,0.2,0.5,0.5,0.5h7.9v20.9v0.5c0,0.2,0.2,0.5,0.5,0.5h2.1
		c0.2,0,0.5-0.2,0.5-0.5v-0.5V20.4H617.3z M635.6,33.4h-11.1l5.6-12.3L635.6,33.4z M642.4,41.8l-10.7-23.7c0,0-0.2-0.5-0.5-0.5h-1.9
		c-0.5,0-0.7,0.5-0.7,0.5l-10.7,23.7c0,0.2,0.2,0.5,0.5,0.5h1.9c0,0,0.5,0,0.7-0.2l2.8-6H637l2.8,6c0.2,0.2,0.7,0.2,0.7,0.2h1.9
		C642.1,42.3,642.4,42,642.4,41.8 M650.5,41.8V18.3c0-0.2-0.2-0.5-0.5-0.5h-2.1c-0.2,0-0.5,0.2-0.5,0.5v23.5c0,0.2,0.2,0.5,0.5,0.5
		h2.1C650.3,42.3,650.5,42,650.5,41.8 M678.6,41.8V18.3c0-0.2-0.2-0.5-0.5-0.5h-1.9c-0.2,0-0.5,0.2-0.5,0.5v19L660.6,18
		c-0.2-0.2-0.7-0.2-0.7-0.2h-1.7c-0.2,0-0.5,0.2-0.5,0.5v23.5c0,0.2,0.2,0.5,0.5,0.5h1.9c0.2,0,0.5-0.2,0.5-0.5V22.3L676.2,42
		c0.2,0.2,0.7,0.2,0.7,0.2h1.4C678.4,42.3,678.6,42,678.6,41.8 M709,41.8V18.3c0-0.2-0.2-0.5-0.5-0.5h-2.1c0,0-0.5,0-0.7,0.2
		l-8.6,13l-8.6-13c-0.2-0.2-0.7-0.2-0.7-0.2h-1.9c-0.2,0-0.5,0.2-0.5,0.5v23.5c0,0.2,0.2,0.5,0.5,0.5h1.9c0.2,0,0.5-0.2,0.5-0.5
		V22.5l8.6,12.5c0,0,0.2,0.2,0.5,0.2s0.5-0.2,0.5-0.2l8.6-12.5v19.3c0,0.2,0.2,0.5,0.5,0.5h2.1C708.8,42.3,709,42,709,41.8
		 M733.4,41.8v-1.9c0-0.2-0.2-0.5-0.5-0.5h-14.4v-8.6h13c0.2,0,0.5-0.2,0.5-0.5v-1.9c0-0.2-0.2-0.5-0.5-0.5h-13v-8.4h14.4
		c0.2,0,0.5-0.2,0.5-0.5v-1.9c0-0.2-0.2-0.5-0.5-0.5h-16.7c-0.2,0-0.5,0.2-0.5,0.5v24.4c0,0.2,0.2,0.5,0.5,0.5h17
		C733.4,42.3,733.4,42,733.4,41.8 M759.7,41.8V18.3c0-0.2-0.2-0.5-0.5-0.5h-1.9c-0.2,0-0.5,0.2-0.5,0.5v19L741.7,18
		c-0.2-0.2-0.7-0.2-0.7-0.2h-1.6c-0.2,0-0.5,0.2-0.5,0.5v23.5c0,0.2,0.2,0.5,0.5,0.5h1.9c0.2,0,0.5-0.2,0.5-0.5V22.3L757.4,42
		c0.2,0.2,0.7,0.2,0.7,0.2h1.4C759.5,42.3,759.7,42,759.7,41.8 M783.8,20.4c0.2,0,0.5-0.2,0.5-0.5V18c0-0.2-0.2-0.5-0.5-0.5h-18.4
		c-0.2,0-0.5,0.2-0.5,0.5v1.9c0,0.2,0.2,0.5,0.5,0.5h7.9v21.4c0,0.2,0.2,0.5,0.5,0.5h2.1c0.2,0,0.5-0.2,0.5-0.5V20.4H783.8z
		 M813.1,39.2c0.5-0.5,0.5-0.7,0.5-0.7v-0.7v-7.9c0-0.2-0.2-0.5-0.5-0.5H804c-0.2,0-0.5,0.2-0.5,0.5v0.9c0,0.2,0.2,0.5,0.5,0.5h7.7
		v7c-1.9,1.4-4.6,2.8-7.7,2.8c-6.5,0-10.5-4.6-10.5-10.9l0,0c0-5.8,4.2-10.9,10-10.9c2.6,0,4.4,0.7,5.8,1.4l0.2,0.2
		c0.5,0.2,0.9,0.7,1.4,0.9h0.2l0,0c0,0,0.2,0,0.2-0.2l0.2-0.5l0.2-0.2l0,0c0.2-0.2,0.2-0.5,0-0.5c-0.2-0.2-0.7-0.5-0.9-0.7l-0.5-0.2
		c-2.1-1.4-4.2-2.1-7.4-2.1c-7.2,0-12.1,6-12.1,12.5l0,0c0,6.7,4.6,12.5,12.3,12.5c3.5,0,6.3-1.2,8.6-2.8L813.1,39.2z M830.3,30.4
		h-8.1V19.5h8.4c4.4,0,7,2.1,7,5.3l0,0C837.3,28.6,834.2,30.4,830.3,30.4 M839.8,41.8l-7.7-10c4.2-0.5,7.2-2.8,7.2-7l0,0
		c0-4.2-3.5-7-8.6-7h-9.8c-0.2,0-0.5,0.2-0.5,0.5v23.5c0,0.2,0.2,0.5,0.5,0.5h1.2c0.2,0,0.5-0.2,0.5-0.5V32h7.9l7.4,9.8
		c0.2,0.2,0.7,0.2,0.7,0.2h1.2C839.6,42.3,839.8,42,839.8,41.8 M866.3,30.2c0,6-4.4,10.9-10.2,10.9c-6,0-10.5-4.9-10.5-10.9l0,0
		c0-6,4.4-10.9,10.2-10.9C861.9,19,866.3,24.1,866.3,30.2L866.3,30.2z M868.2,29.9L868.2,29.9c0-6.7-4.9-12.5-12.3-12.5
		s-12.3,6-12.3,12.5l0,0c0,6.7,4.9,12.5,12.3,12.5C863.3,42.5,868.2,36.7,868.2,29.9 M893.9,31.8V18.1c0-0.2-0.2-0.5-0.5-0.5h-1.2
		c-0.2,0-0.5,0.2-0.5,0.5V32c0,5.8-3.3,8.8-8.1,8.8c-5.1,0-8.1-3.3-8.1-9.1V18c0-0.2-0.2-0.5-0.5-0.5h-1.2c-0.2,0-0.5,0.2-0.5,0.5
		v13.9c0,6.7,4.2,10.5,10,10.5C890,42.7,893.9,38.8,893.9,31.8 M917.2,25.5c0,3.7-3,6-7.7,6h-6.7V19.7h7
		C914.1,19.5,917.2,21.6,917.2,25.5L917.2,25.5z M919,25.3L919,25.3c0-4.9-3.7-7.4-9.1-7.4h-8.4c-0.2,0-0.5,0.2-0.5,0.5v23.5
		c0,0.2,0.2,0.5,0.5,0.5h1.2c0.2,0,0.5-0.2,0.5-0.5v-8.6h6.5C914.6,33.2,919,30.4,919,25.3"/>
	<path fill="#BCAA96" d="M390.1,42.3c0.2,0,0.5-0.2,0.5-0.5v-3.7c0-0.2-0.2-0.5-0.5-0.5h-13.2V32h11.4c0.2,0,0.5-0.2,0.5-0.5v-3.7
		c0-0.2-0.2-0.5-0.5-0.5h-11.4v-5.6h13.2c0.2,0,0.5-0.2,0.5-0.5v-3.7c0-0.2-0.2-0.5-0.5-0.5h-17.7c-0.2,0-0.5,0.2-0.5,0.5v24.2
		c0,0.2,0.2,0.5,0.5,0.5h17.7V42.3z M399,29.9c0-4.6,3.3-8.1,7.4-8.1c2.3,0,4.2,0.9,6.3,2.8h0.2l0,0c0,0,0.2,0,0.2-0.2l2.6-3
		c0.2-0.2,0.2-0.5,0-0.5c-1.9-1.9-4.6-3.7-9.5-3.7c-3.5,0-6.7,1.4-9.1,3.7c-2.3,2.3-3.5,5.6-3.5,8.8c0,3.5,1.2,6.5,3.5,8.8
		s5.6,3.7,9.1,3.7c4.9,0,7.4-1.9,9.5-3.7c0.2-0.2,0.2-0.5,0-0.5l-2.6-3l-0.2-0.2l0,0h-0.2c-2.1,1.9-4.2,2.8-6.3,2.8
		C402,38.1,399,34.6,399,29.9 M440.3,42.3c0.2,0,0.5-0.2,0.5-0.5V18.3c0-0.2-0.2-0.5-0.5-0.5h-4.2c-0.2,0-0.5,0.2-0.5,0.5v9.5h-10.4
		v-9.5c0-0.2-0.2-0.5-0.5-0.5h-4.2c-0.2,0-0.5,0.2-0.5,0.5v23.5c0,0.2,0.2,0.5,0.5,0.5h4.2c0.2,0,0.5-0.2,0.5-0.5v-9.5h10.5v9.5
		c0,0.2,0.2,0.5,0.5,0.5H440.3z M465.2,29.9c0,4.6-3.3,8.1-7.7,8.1s-7.7-3.5-7.7-8.1s3.3-8.1,7.7-8.1
		C461.9,22,465.2,25.5,465.2,29.9 M470.5,29.9c0-3.5-1.2-6.5-3.5-8.8s-5.6-3.7-9.3-3.7c-3.5,0-6.7,1.4-9.3,3.7
		c-2.3,2.3-3.5,5.6-3.5,8.8c0,3.5,1.2,6.5,3.5,8.8s5.6,3.7,9.3,3.7c3.5,0,6.7-1.4,9.3-3.7C469.1,36.7,470.5,33.4,470.5,29.9"/>
</g>
<g>
	<path fill="#BCAA96" d="M399.9,68.8l-8.4,17h-4.1l-8.3-17v19.6h-7V57.2h9.4l8,17.2l8.1-17.2h9.4v31.2h-7V68.8H399.9z"/>
	<path fill="#BCAA96" d="M436.7,88.4l-2.9-6.7h-13.1l-2.9,6.7h-7.3L424,57.2h6.7l13.5,31.2C444.3,88.4,436.7,88.4,436.7,88.4z
		 M427.3,66.5l-4,9.1h7.8L427.3,66.5z"/>
	<path fill="#BCAA96" d="M473,67.6c0,4.9-1.9,8.3-5.9,9.7l8,11.1h-8.6l-6.8-9.9h-4.8v9.9h-7V57.2h11.8c4.8,0,8.3,0.8,10.3,2.4
		C472,61.4,473,63.9,473,67.6z M464.7,71.2c0.8-0.8,1.3-2.1,1.3-3.7c0-1.8-0.5-2.9-1.3-3.5c-1-0.6-2.4-1-4.6-1h-5.3v9.2h5.1
		C462.1,72.5,463.7,72,464.7,71.2z"/>
	<path fill="#BCAA96" d="M480.1,57.2h7v12.7l11.8-12.7h8.6l-12.4,13.9c1.1,1.4,3,4.3,5.9,8.3s5.1,7,6.5,9.1h-8.1l-9.1-12.3l-3.2,3.5
		v8.8h-7L480.1,57.2L480.1,57.2z"/>
	<path fill="#BCAA96" d="M534.3,57.2v6.2h-15.4v6.4h14v5.9h-14v6.5H535v6.2h-22.9V57.2H534.3z"/>
	<path fill="#BCAA96" d="M554.2,63.3v25.2h-7V63.3h-8.8v-6.1h24.7v6.1H554.2z"/>
	<path fill="#BCAA96" d="M568,57.2h7v31.2h-7V57.2z"/>
	<path fill="#BCAA96" d="M604.5,57.2h7v31.2h-7l-14.8-19.6v19.6h-7V57.2h6.5l15.3,20.1V57.2z"/>
	<path fill="#BCAA96" d="M639.4,72.5h7v11c-3,3.5-7.3,5.1-12.9,5.1c-4.6,0-8.4-1.6-11.5-4.6c-3.2-3-4.6-6.8-4.6-11.5
		s1.6-8.4,4.8-11.6c3.2-3,7-4.6,11.5-4.6s8.3,1.4,11.6,4.5l-3.7,5.3c-1.4-1.3-2.7-2.1-3.8-2.5c-1.1-0.5-2.4-0.6-3.8-0.6
		c-2.7,0-4.9,1-6.7,2.7c-1.8,1.8-2.7,4.1-2.7,7.2c0,2.9,0.8,5.3,2.5,7c1.8,1.8,3.8,2.7,6.2,2.7s4.5-0.5,6.1-1.4L639.4,72.5
		L639.4,72.5z"/>
	<path fill="#BCAA96" d="M678.7,82.2c3.3,0,6.2-1.3,8.4-4l4.5,4.6c-3.5,4-7.6,6.1-12.6,6.1c-4.8,0-8.8-1.6-11.8-4.6
		c-3.2-3-4.6-6.8-4.6-11.5c0-4.6,1.6-8.4,4.8-11.6c3.2-3.2,7-4.6,11.6-4.6c5.1,0,9.4,1.9,12.9,5.9l-4.3,4.9
		c-2.2-2.7-4.9-4.1-8.3-4.1c-2.5,0-4.8,0.8-6.7,2.5s-2.9,4-2.9,6.8c0,2.9,0.8,5.3,2.7,7C674.1,81.4,676.1,82.2,678.7,82.2z"/>
	<path fill="#BCAA96" d="M719,88.4l-2.9-6.7H703l-2.9,6.7h-7.5l13.5-31.2h6.7l13.5,31.2C726.5,88.4,719,88.4,719,88.4z M709.6,66.5
		l-4,9.1h7.8L709.6,66.5z"/>
	<path fill="#BCAA96" d="M730,88.4V57.2h7v25h13.2v6.2H730z"/>
	<path fill="#BCAA96" d="M777.7,57.2v6.2h-15.4v6.4h14v5.9h-14v6.5h16.1v6.2h-22.9V57.2H777.7z"/>
	<path fill="#BCAA96" d="M806.2,57.2h7v31.2h-7l-14.8-19.6v19.6h-7V57.2h6.5l15.3,20.1V57.2L806.2,57.2z"/>
	<path fill="#BCAA96" d="M844.6,61.4c3,2.7,4.5,6.5,4.5,11.3s-1.4,8.8-4.3,11.5c-2.9,2.9-7.3,4.3-13.2,4.3h-10.7V57.3h11
		C837.4,57.2,841.7,58.7,844.6,61.4z M839.5,79.8c1.8-1.6,2.5-4,2.5-7s-0.8-5.4-2.5-7c-1.8-1.6-4.3-2.5-7.8-2.5h-3.8v18.9h4.5
		C835.4,82.2,837.9,81.4,839.5,79.8z"/>
	<path fill="#BCAA96" d="M876.5,88.4l-2.9-6.7h-13.1l-2.9,6.7h-7.3l13.5-31.2h6.7L884,88.4C884.1,88.4,876.5,88.4,876.5,88.4z
		 M867.1,66.5l-4,9.1h7.8L867.1,66.5z"/>
	<path fill="#BCAA96" d="M912.8,67.6c0,4.9-1.9,8.3-5.9,9.7l8,11.1h-8.7l-6.8-9.9h-4.8v9.9h-7V57.2h11.8c4.8,0,8.3,0.8,10.3,2.4
		C911.8,61.4,912.8,63.9,912.8,67.6z M904.3,71.2c0.8-0.8,1.3-2.1,1.3-3.7c0-1.8-0.5-2.9-1.3-3.5c-1-0.6-2.4-1-4.6-1h-5.3v9.2h5.1
		C901.9,72.5,903.5,72,904.3,71.2z"/>
</g>
</svg>
